<svg xmlns="http://www.w3.org/2000/svg" xmlns:xlink="http://www.w3.org/1999/xlink" width="1080" zoomAndPan="magnify" viewBox="0 0 810 1079.999946" height="1440" preserveAspectRatio="xMidYMid meet" version="1.0"><defs><g/><clipPath id="3812649612"><path d="M 77 0.519531 L 115 0.519531 L 115 41 L 77 41 Z M 77 0.519531 " clip-rule="nonzero"/></clipPath><clipPath id="a26298c6ef"><path d="M 0.601562 0.519531 L 38 0.519531 L 38 41 L 0.601562 41 Z M 0.601562 0.519531 " clip-rule="nonzero"/></clipPath><clipPath id="4177d13423"><path d="M 0.601562 49 L 95 49 L 95 90 L 0.601562 90 Z M 0.601562 49 " clip-rule="nonzero"/></clipPath><clipPath id="9ddbfb5120"><path d="M 368 11 L 555.480469 11 L 555.480469 110.679688 L 368 110.679688 Z M 368 11 " clip-rule="nonzero"/></clipPath><clipPath id="a8b6c4ccfe"><rect x="0" width="188" y="0" height="100"/></clipPath><clipPath id="53345a37a5"><rect x="0" width="556" y="0" height="111"/></clipPath></defs><g transform="matrix(1, 0, 0, 1, 129, 485)"><g clip-path="url(#53345a37a5)"><path fill="#ffffff" d="M 41.816406 1.550781 C 41.820312 1.296875 42.027344 1.085938 42.28125 1.085938 C 45.253906 1.085938 48.226562 1.089844 51.199219 1.082031 C 51.742188 1.082031 52.242188 1.371094 52.515625 1.84375 C 55.886719 7.703125 59.265625 13.5625 62.644531 19.414062 C 66.210938 25.59375 69.785156 31.769531 73.34375 37.953125 C 73.492188 38.214844 73.558594 38.539062 73.582031 38.84375 C 73.609375 39.164062 73.605469 39.488281 73.597656 39.824219 C 73.59375 40.0625 73.402344 40.253906 73.167969 40.253906 C 69.976562 40.253906 66.789062 40.246094 63.601562 40.261719 C 63.3125 40.261719 63.167969 40.160156 63.035156 39.925781 C 58.898438 32.699219 54.757812 25.476562 50.613281 18.253906 C 47.753906 13.261719 44.886719 8.277344 42.03125 3.285156 C 41.914062 3.074219 41.84375 2.839844 41.828125 2.597656 C 41.8125 2.253906 41.8125 1.910156 41.816406 1.550781 " fill-opacity="1" fill-rule="nonzero"/><path fill="#ffffff" d="M 141.105469 35.128906 C 140.96875 35.320312 140.699219 35.347656 140.519531 35.199219 C 138.988281 33.917969 137.484375 32.664062 135.984375 31.410156 C 132.210938 28.25 128.441406 25.089844 124.667969 21.933594 C 123.582031 21.023438 122.410156 20.191406 121.421875 19.1875 C 119.726562 17.46875 118.777344 15.371094 118.554688 12.929688 C 118.386719 11.066406 118.828125 8.949219 119.742188 7.253906 C 120.195312 6.410156 121.308594 6.210938 122.039062 6.824219 C 122.652344 7.34375 123.269531 7.863281 123.882812 8.386719 C 129.25 12.921875 134.636719 17.433594 139.964844 22.015625 C 141.535156 23.371094 142.453125 25.191406 142.8125 27.253906 C 143.308594 30.105469 142.769531 32.742188 141.105469 35.125 Z M 141.105469 35.128906 " fill-opacity="1" fill-rule="nonzero"/><path fill="#ffffff" d="M 72.898438 32.390625 C 71.96875 30.78125 71.039062 29.171875 70.109375 27.5625 C 68.058594 24.007812 66.003906 20.453125 63.960938 16.890625 C 63.851562 16.703125 63.773438 16.464844 63.773438 16.25 C 63.761719 11.320312 63.765625 6.394531 63.765625 1.46875 C 63.765625 1.269531 63.925781 1.109375 64.121094 1.109375 L 73.207031 1.109375 C 73.402344 1.109375 73.5625 1.269531 73.5625 1.46875 L 73.5625 32.207031 C 73.5625 32.574219 73.082031 32.707031 72.898438 32.390625 " fill-opacity="1" fill-rule="nonzero"/><path fill="#ffffff" d="M 51.585938 40.230469 L 43.359375 40.230469 C 42.519531 40.230469 41.839844 39.542969 41.839844 38.695312 L 41.839844 8.941406 C 41.839844 8.644531 42.230469 8.539062 42.375 8.796875 C 45.386719 14.027344 48.394531 19.257812 51.394531 24.492188 C 51.53125 24.726562 51.601562 24.992188 51.601562 25.261719 C 51.609375 30.15625 51.605469 35.050781 51.605469 39.941406 C 51.605469 40.027344 51.59375 40.113281 51.585938 40.230469 " fill-opacity="1" fill-rule="nonzero"/><path fill="#ffffff" d="M 137.636719 35.945312 C 138.441406 36.617188 138.347656 37.890625 137.460938 38.4375 C 137.085938 38.667969 136.703125 38.875 136.296875 39.050781 C 132.484375 40.722656 128.648438 40.730469 124.910156 38.910156 C 122.082031 37.53125 119.929688 35.390625 118.996094 32.296875 C 117.898438 28.652344 118.628906 25.339844 121.105469 22.429688 C 121.140625 22.386719 121.183594 22.347656 121.230469 22.3125 C 121.25 22.296875 121.28125 22.289062 121.335938 22.261719 C 126.757812 26.8125 132.1875 31.371094 137.636719 35.945312 " fill-opacity="1" fill-rule="nonzero"/><path fill="#ffffff" d="M 139.023438 18.074219 C 134.007812 13.84375 128.984375 9.613281 123.910156 5.332031 C 123.113281 4.660156 123.195312 3.394531 124.082031 2.847656 C 124.21875 2.761719 124.359375 2.679688 124.503906 2.601562 C 126.929688 1.257812 129.558594 0.890625 132.285156 1.152344 C 135.203125 1.425781 137.707031 2.617188 139.816406 4.648438 C 143.605469 8.292969 143.902344 13.785156 141.261719 17.738281 C 140.757812 18.496094 139.71875 18.660156 139.023438 18.074219 " fill-opacity="1" fill-rule="nonzero"/><g clip-path="url(#3812649612)"><path fill="#ffffff" d="M 113.011719 40.296875 L 102.128906 40.296875 C 101.542969 40.296875 101.007812 39.953125 100.757812 39.417969 L 89.21875 14.714844 C 89.027344 14.296875 89.027344 13.816406 89.222656 13.398438 L 94.6875 1.796875 C 95.238281 0.625 96.882812 0.628906 97.429688 1.800781 L 114.382812 38.105469 C 114.859375 39.125 114.125 40.296875 113.011719 40.296875 M 95.230469 40.296875 L 79.027344 40.296875 C 77.914062 40.296875 77.179688 39.121094 77.65625 38.105469 L 85.792969 20.769531 C 86.34375 19.601562 87.992188 19.601562 88.539062 20.777344 L 96.601562 38.109375 C 97.078125 39.125 96.34375 40.296875 95.230469 40.296875 " fill-opacity="1" fill-rule="nonzero"/></g><g clip-path="url(#a26298c6ef)"><path fill="#ffffff" d="M 36.40625 40.0625 L 25.523438 40.0625 C 24.9375 40.0625 24.402344 39.71875 24.152344 39.183594 L 12.613281 14.476562 C 12.421875 14.0625 12.421875 13.578125 12.617188 13.164062 L 18.082031 1.558594 C 18.632812 0.390625 20.277344 0.394531 20.824219 1.5625 L 37.777344 37.871094 C 38.253906 38.890625 37.519531 40.0625 36.40625 40.0625 M 18.625 40.0625 L 2.421875 40.0625 C 1.308594 40.0625 0.574219 38.886719 1.050781 37.867188 L 9.1875 20.535156 C 9.738281 19.367188 11.386719 19.367188 11.929688 20.539062 L 19.996094 37.875 C 20.46875 38.890625 19.738281 40.0625 18.625 40.0625 " fill-opacity="1" fill-rule="nonzero"/></g><path fill="#ffffff" d="M 143.203125 51.449219 C 143.203125 50.597656 143.890625 49.90625 144.734375 49.914062 C 146.269531 49.921875 147.789062 49.9375 149.308594 49.898438 C 153.746094 49.777344 158.152344 53.753906 157.835938 58.964844 C 157.597656 62.835938 154.730469 66.128906 150.933594 66.863281 C 150.808594 66.886719 150.6875 66.921875 150.457031 66.980469 C 151.121094 67.128906 151.683594 67.226562 152.234375 67.375 C 156.566406 68.535156 159.828125 72.550781 160.214844 77.054688 C 160.671875 82.371094 157.398438 86.6875 153.238281 88.320312 C 152.007812 88.800781 150.726562 89.085938 149.390625 89.074219 C 147.492188 89.0625 145.597656 89.070312 143.699219 89.070312 C 143.425781 89.070312 143.203125 88.847656 143.203125 88.570312 Z M 143.203125 51.449219 " fill-opacity="1" fill-rule="nonzero"/><path fill="#ffffff" d="M 116.761719 75.703125 C 119.558594 79.308594 122.359375 82.921875 125.175781 86.554688 C 125.953125 87.5625 125.246094 89.035156 123.980469 89.035156 L 111.566406 89.035156 C 110.726562 89.035156 110.046875 88.347656 110.046875 87.5 L 110.046875 51.417969 C 110.046875 50.589844 110.699219 49.902344 111.519531 49.882812 C 114.523438 49.8125 117.359375 50.375 119.84375 52.347656 C 122.660156 54.585938 124.410156 57.433594 124.636719 61.09375 C 124.964844 66.453125 122.671875 70.382812 118.070312 73 C 117.839844 73.128906 117.601562 73.242188 117.359375 73.347656 C 116.441406 73.738281 116.144531 74.910156 116.761719 75.703125 " fill-opacity="1" fill-rule="nonzero"/><path fill="#ffffff" d="M 99.328125 49.917969 L 106.015625 49.917969 C 106.851562 49.917969 107.53125 50.605469 107.53125 51.453125 L 107.53125 87.503906 C 107.53125 88.351562 106.851562 89.039062 106.015625 89.039062 L 99.328125 89.039062 C 98.488281 89.039062 97.808594 88.351562 97.808594 87.503906 L 97.808594 51.453125 C 97.808594 50.605469 98.488281 49.917969 99.328125 49.917969 " fill-opacity="1" fill-rule="nonzero"/><path fill="#ffffff" d="M 140.695312 51.472656 L 140.695312 87.515625 C 140.695312 88.363281 140.015625 89.050781 139.175781 89.050781 L 132.480469 89.050781 C 131.644531 89.050781 130.964844 88.363281 130.964844 87.515625 L 130.964844 51.472656 C 130.964844 50.625 131.644531 49.9375 132.480469 49.9375 L 139.175781 49.9375 C 140.015625 49.9375 140.695312 50.625 140.695312 51.472656 " fill-opacity="1" fill-rule="nonzero"/><path fill="#ffffff" d="M 172.753906 89.054688 L 166.058594 89.054688 C 165.21875 89.054688 164.539062 88.367188 164.539062 87.519531 L 164.539062 51.460938 C 164.539062 50.613281 165.21875 49.925781 166.058594 49.925781 L 172.753906 49.925781 C 173.59375 49.925781 174.273438 50.613281 174.273438 51.460938 L 174.273438 87.519531 C 174.273438 88.367188 173.59375 89.054688 172.753906 89.054688 " fill-opacity="1" fill-rule="nonzero"/><path fill="#ffffff" d="M 202.070312 89.050781 L 195.375 89.050781 C 194.535156 89.050781 193.855469 88.367188 193.855469 87.519531 L 193.855469 51.460938 C 193.855469 50.613281 194.535156 49.925781 195.375 49.925781 L 202.070312 49.925781 C 202.910156 49.925781 203.589844 50.613281 203.589844 51.460938 L 203.589844 87.519531 C 203.589844 88.367188 202.910156 89.050781 202.070312 89.050781 " fill-opacity="1" fill-rule="nonzero"/><path fill="#ffffff" d="M 191.390625 78.347656 L 191.390625 87.519531 C 191.390625 88.367188 190.710938 89.054688 189.875 89.054688 L 178.214844 89.054688 C 177.378906 89.054688 176.699219 88.367188 176.699219 87.519531 L 176.699219 78.347656 C 176.699219 77.5 177.378906 76.8125 178.214844 76.8125 L 189.875 76.8125 C 190.710938 76.8125 191.390625 77.5 191.390625 78.347656 " fill-opacity="1" fill-rule="nonzero"/><path fill="#ffffff" d="M 220.710938 78.359375 L 220.710938 87.507812 C 220.710938 88.355469 220.03125 89.042969 219.191406 89.042969 L 207.527344 89.042969 C 206.691406 89.042969 206.011719 88.355469 206.011719 87.507812 L 206.011719 78.359375 C 206.011719 77.511719 206.691406 76.824219 207.527344 76.824219 L 219.191406 76.824219 C 220.03125 76.824219 220.710938 77.511719 220.710938 78.359375 " fill-opacity="1" fill-rule="nonzero"/><path fill="#ffffff" d="M 220.707031 51.457031 L 220.707031 58.148438 C 220.707031 58.996094 220.027344 59.679688 219.1875 59.679688 L 207.535156 59.679688 C 206.699219 59.679688 206.019531 58.996094 206.019531 58.148438 L 206.019531 51.457031 C 206.019531 50.609375 206.699219 49.921875 207.535156 49.921875 L 219.1875 49.921875 C 220.027344 49.921875 220.707031 50.609375 220.707031 51.457031 " fill-opacity="1" fill-rule="nonzero"/><path fill="#ffffff" d="M 211.847656 71.941406 L 207.542969 71.941406 C 206.707031 71.941406 206.027344 71.253906 206.027344 70.40625 L 206.027344 63.707031 C 206.027344 62.859375 206.707031 62.171875 207.542969 62.171875 L 211.847656 62.171875 C 212.6875 62.171875 213.367188 62.859375 213.367188 63.707031 L 213.367188 70.40625 C 213.367188 71.253906 212.6875 71.941406 211.847656 71.941406 " fill-opacity="1" fill-rule="nonzero"/><g clip-path="url(#4177d13423)"><path fill="#ffffff" d="M 17.75 89.167969 L 2.378906 89.167969 C 1.246094 89.167969 0.5 87.921875 0.988281 86.84375 L 8.707031 69.664062 C 9.25 68.453125 10.949219 68.453125 11.492188 69.667969 L 19.140625 86.847656 C 19.621094 87.925781 18.878906 89.167969 17.75 89.167969 M 34.976562 89.167969 L 24.660156 89.167969 C 24.066406 89.167969 23.523438 88.804688 23.269531 88.234375 L 12.1875 63.441406 C 11.988281 63 11.988281 62.488281 12.1875 62.046875 L 17.367188 50.554688 C 17.914062 49.347656 19.609375 49.347656 20.152344 50.558594 L 36.371094 86.84375 C 36.851562 87.925781 36.105469 89.167969 34.976562 89.167969 M 52.109375 89.167969 L 41.792969 89.167969 C 41.195312 89.167969 40.652344 88.804688 40.398438 88.234375 L 29.316406 63.441406 C 29.121094 63 29.121094 62.488281 29.320312 62.046875 L 34.5 50.554688 C 35.042969 49.34375 36.742188 49.347656 37.28125 50.558594 L 53.5 86.84375 C 53.984375 87.925781 53.238281 89.167969 52.109375 89.167969 M 92.609375 89.167969 L 81.898438 89.167969 C 81.28125 89.167969 80.714844 88.804688 80.453125 88.242188 L 68.945312 63.605469 C 68.742188 63.164062 68.742188 62.65625 68.949219 62.21875 L 74.328125 50.796875 C 74.90625 49.566406 76.640625 49.570312 77.214844 50.804688 L 94.054688 86.859375 C 94.554688 87.933594 93.78125 89.167969 92.609375 89.167969 M 74.816406 89.167969 L 58.859375 89.167969 C 57.683594 89.167969 56.910156 87.929688 57.414062 86.855469 L 65.429688 69.785156 C 66.007812 68.550781 67.746094 68.554688 68.320312 69.789062 L 76.265625 86.863281 C 76.761719 87.933594 75.988281 89.167969 74.816406 89.167969 " fill-opacity="1" fill-rule="nonzero"/></g><path fill="#ffffff" d="M 308.921875 59.078125 C 308.921875 61.304688 308.921875 63.527344 308.921875 65.753906 C 308.921875 68.640625 306.828125 70.152344 304.101562 69.054688 C 301.355469 67.945312 298.570312 67.28125 295.609375 67.589844 C 294.082031 67.75 292.566406 68.03125 291.046875 68.285156 C 289.699219 68.507812 288.390625 68.519531 287.601562 67.183594 C 286.148438 64.726562 283.714844 62.566406 284.339844 59.371094 C 284.714844 57.464844 285.609375 55.613281 286.515625 53.859375 C 287.824219 51.332031 289.289062 48.875 290.832031 46.480469 C 291.210938 45.890625 292.136719 45.34375 292.832031 45.320312 C 296.226562 45.203125 299.632812 45.222656 303.03125 45.285156 C 306.128906 45.34375 308.773438 47.933594 308.882812 51.03125 C 308.976562 53.710938 308.902344 56.398438 308.902344 59.078125 Z M 308.921875 59.078125 " fill-opacity="1" fill-rule="nonzero"/><path fill="#ffffff" d="M 271.292969 57.40625 C 271.292969 55.316406 271.246094 53.222656 271.304688 51.136719 C 271.398438 47.839844 273.910156 45.339844 277.191406 45.28125 C 280.0625 45.230469 282.9375 45.316406 285.808594 45.253906 C 287.460938 45.21875 288.117188 46.148438 287.582031 47.445312 C 286.808594 49.328125 285.800781 51.179688 284.570312 52.800781 C 282.199219 55.929688 279.652344 58.933594 277.074219 61.898438 C 275.9375 63.203125 274.585938 64.339844 273.261719 65.464844 C 272.34375 66.242188 271.347656 65.734375 271.3125 64.460938 C 271.25 62.109375 271.292969 59.757812 271.292969 57.40625 " fill-opacity="1" fill-rule="nonzero"/><path fill="#ffffff" d="M 298.390625 82.902344 C 296.890625 82.90625 295.390625 82.894531 293.886719 82.910156 C 292.8125 82.921875 292.246094 82.53125 292.089844 81.351562 C 291.808594 79.238281 291.125 77.164062 290.992188 75.046875 C 290.773438 71.550781 293.597656 69.472656 296.382812 69.609375 C 300.296875 69.800781 304.160156 70.09375 307.574219 72.222656 C 308.207031 72.617188 308.648438 73.546875 308.863281 74.320312 C 309.082031 75.109375 308.9375 76.003906 308.910156 76.851562 C 308.800781 80.132812 306.195312 82.769531 302.894531 82.894531 C 301.394531 82.949219 299.894531 82.902344 298.390625 82.902344 " fill-opacity="1" fill-rule="nonzero"/><path fill="#ffffff" d="M 289.355469 82.730469 C 284.753906 82.730469 280.316406 82.964844 275.921875 82.640625 C 273.328125 82.449219 271.40625 79.648438 271.300781 77.035156 C 271.066406 71.121094 271.300781 70.828125 277.25 70.035156 C 278.28125 69.898438 279.335938 69.878906 280.378906 69.871094 C 282.511719 69.859375 284.203125 70.546875 285.371094 72.539062 C 287.230469 75.699219 289.191406 78.78125 289.355469 82.730469 " fill-opacity="1" fill-rule="nonzero"/><path fill="#ffffff" d="M 280.496094 68.359375 C 278.433594 68.253906 276.417969 68.804688 275.792969 66.839844 C 275.175781 64.914062 277.105469 64.207031 278.285156 63.152344 C 279.351562 62.203125 280.3125 61.269531 281.816406 62.007812 C 282.96875 62.570312 284.40625 65.5625 284.121094 66.875 C 284.023438 67.316406 283.507812 67.878906 283.078125 67.996094 C 282.089844 68.265625 281.039062 68.292969 280.496094 68.359375 " fill-opacity="1" fill-rule="nonzero"/><g clip-path="url(#9ddbfb5120)"><g transform="matrix(1, 0, 0, 1, 368, 11)"><g clip-path="url(#a8b6c4ccfe)"><g fill="#ffffff" fill-opacity="1"><g transform="translate(0.794509, 80.524418)"><g><path d="M 3.9375 -20.1875 L 11.78125 -20.875 C 12.15625 -17.726562 13.019531 -15.144531 14.375 -13.125 C 15.738281 -11.113281 17.847656 -9.488281 20.703125 -8.25 C 23.554688 -7.007812 26.769531 -6.390625 30.34375 -6.390625 C 33.519531 -6.390625 36.320312 -6.859375 38.75 -7.796875 C 41.175781 -8.742188 42.984375 -10.035156 44.171875 -11.671875 C 45.359375 -13.316406 45.953125 -15.113281 45.953125 -17.0625 C 45.953125 -19.03125 45.378906 -20.75 44.234375 -22.21875 C 43.085938 -23.695312 41.203125 -24.9375 38.578125 -25.9375 C 36.890625 -26.59375 33.160156 -27.613281 27.390625 -29 C 21.617188 -30.382812 17.578125 -31.691406 15.265625 -32.921875 C 12.265625 -34.492188 10.023438 -36.441406 8.546875 -38.765625 C 7.078125 -41.097656 6.34375 -43.707031 6.34375 -46.59375 C 6.34375 -49.757812 7.242188 -52.722656 9.046875 -55.484375 C 10.847656 -58.242188 13.472656 -60.335938 16.921875 -61.765625 C 20.378906 -63.191406 24.222656 -63.90625 28.453125 -63.90625 C 33.117188 -63.90625 37.226562 -63.15625 40.78125 -61.65625 C 44.34375 -60.15625 47.078125 -57.945312 48.984375 -55.03125 C 50.898438 -52.113281 51.929688 -48.816406 52.078125 -45.140625 L 44.109375 -44.53125 C 43.679688 -48.5 42.226562 -51.5 39.75 -53.53125 C 37.28125 -55.5625 33.628906 -56.578125 28.796875 -56.578125 C 23.773438 -56.578125 20.113281 -55.65625 17.8125 -53.8125 C 15.507812 -51.96875 14.359375 -49.742188 14.359375 -47.140625 C 14.359375 -44.890625 15.171875 -43.035156 16.796875 -41.578125 C 18.398438 -40.117188 22.578125 -38.625 29.328125 -37.09375 C 36.085938 -35.5625 40.726562 -34.226562 43.25 -33.09375 C 46.90625 -31.40625 49.601562 -29.265625 51.34375 -26.671875 C 53.09375 -24.085938 53.96875 -21.113281 53.96875 -17.75 C 53.96875 -14.40625 53.007812 -11.253906 51.09375 -8.296875 C 49.175781 -5.335938 46.425781 -3.035156 42.84375 -1.390625 C 39.257812 0.253906 35.222656 1.078125 30.734375 1.078125 C 25.046875 1.078125 20.28125 0.25 16.4375 -1.40625 C 12.59375 -3.070312 9.578125 -5.566406 7.390625 -8.890625 C 5.203125 -12.222656 4.050781 -15.988281 3.9375 -20.1875 Z M 3.9375 -20.1875 "/></g></g></g><g fill="#ffffff" fill-opacity="1"><g transform="translate(57.406141, 80.524418)"><g><path d="M 22.625 -6.90625 L 23.75 -0.078125 C 21.570312 0.367188 19.628906 0.59375 17.921875 0.59375 C 15.117188 0.59375 12.945312 0.148438 11.40625 -0.734375 C 9.863281 -1.617188 8.773438 -2.78125 8.140625 -4.21875 C 7.515625 -5.664062 7.203125 -8.703125 7.203125 -13.328125 L 7.203125 -39.515625 L 1.546875 -39.515625 L 1.546875 -45.515625 L 7.203125 -45.515625 L 7.203125 -56.796875 L 14.875 -61.421875 L 14.875 -45.515625 L 22.625 -45.515625 L 22.625 -39.515625 L 14.875 -39.515625 L 14.875 -12.90625 C 14.875 -10.695312 15.007812 -9.28125 15.28125 -8.65625 C 15.550781 -8.03125 15.992188 -7.53125 16.609375 -7.15625 C 17.222656 -6.78125 18.101562 -6.59375 19.25 -6.59375 C 20.101562 -6.59375 21.226562 -6.695312 22.625 -6.90625 Z M 22.625 -6.90625 "/></g></g></g><g fill="#ffffff" fill-opacity="1"><g transform="translate(79.860721, 80.524418)"><g><path d="M 5.4375 17.53125 L 4.59375 10.28125 C 6.269531 10.738281 7.738281 10.96875 9 10.96875 C 10.71875 10.96875 12.085938 10.679688 13.109375 10.109375 C 14.140625 9.546875 14.984375 8.75 15.640625 7.71875 C 16.128906 6.945312 16.914062 5.03125 18 1.96875 C 18.144531 1.539062 18.375 0.910156 18.6875 0.078125 L 1.421875 -45.515625 L 9.734375 -45.515625 L 19.203125 -19.15625 C 20.429688 -15.8125 21.53125 -12.296875 22.5 -8.609375 C 23.382812 -12.160156 24.441406 -15.617188 25.671875 -18.984375 L 35.40625 -45.515625 L 43.125 -45.515625 L 25.796875 0.765625 C 23.941406 5.765625 22.5 9.207031 21.46875 11.09375 C 20.101562 13.644531 18.535156 15.507812 16.765625 16.6875 C 14.992188 17.875 12.878906 18.46875 10.421875 18.46875 C 8.929688 18.46875 7.269531 18.15625 5.4375 17.53125 Z M 5.4375 17.53125 "/></g></g></g><g fill="#ffffff" fill-opacity="1"><g transform="translate(121.81525, 80.524418)"><g><path d="M 5.609375 0 L 5.609375 -62.828125 L 13.328125 -62.828125 L 13.328125 0 Z M 5.609375 0 "/></g></g></g><g fill="#ffffff" fill-opacity="1"><g transform="translate(139.384128, 80.524418)"><g><path d="M 36.953125 -14.65625 L 44.921875 -13.671875 C 43.660156 -9.015625 41.328125 -5.398438 37.921875 -2.828125 C 34.523438 -0.253906 30.1875 1.03125 24.90625 1.03125 C 18.25 1.03125 12.96875 -1.015625 9.0625 -5.109375 C 5.164062 -9.210938 3.21875 -14.96875 3.21875 -22.375 C 3.21875 -30.03125 5.1875 -35.972656 9.125 -40.203125 C 13.070312 -44.429688 18.1875 -46.546875 24.46875 -46.546875 C 30.5625 -46.546875 35.535156 -44.472656 39.390625 -40.328125 C 43.242188 -36.191406 45.171875 -30.363281 45.171875 -22.84375 C 45.171875 -22.382812 45.160156 -21.695312 45.140625 -20.78125 L 11.1875 -20.78125 C 11.46875 -15.78125 12.878906 -11.953125 15.421875 -9.296875 C 17.972656 -6.640625 21.148438 -5.3125 24.953125 -5.3125 C 27.773438 -5.3125 30.1875 -6.050781 32.1875 -7.53125 C 34.1875 -9.019531 35.773438 -11.394531 36.953125 -14.65625 Z M 11.609375 -27.125 L 37.03125 -27.125 C 36.6875 -30.957031 35.71875 -33.832031 34.125 -35.75 C 31.664062 -38.71875 28.476562 -40.203125 24.5625 -40.203125 C 21.019531 -40.203125 18.039062 -39.015625 15.625 -36.640625 C 13.207031 -34.273438 11.867188 -31.101562 11.609375 -27.125 Z M 11.609375 -27.125 "/></g></g></g></g></g></g></g></g></svg>