<?xml version="1.0" encoding="UTF-8" standalone="no"?>
<!DOCTYPE svg PUBLIC "-//W3C//DTD SVG 1.1//EN" "http://www.w3.org/Graphics/SVG/1.1/DTD/svg11.dtd">
<svg width="100%" height="100%" viewBox="0 0 2012 810" version="1.1" xmlns="http://www.w3.org/2000/svg" xmlns:xlink="http://www.w3.org/1999/xlink" xml:space="preserve" xmlns:serif="http://www.serif.com/" style="fill-rule:evenodd;clip-rule:evenodd;stroke-linejoin:round;stroke-miterlimit:2;">
    <g transform="matrix(1,0,0,1,-222.516384,-492.871478)">
        <g transform="matrix(2.122004,0,0,2.122004,-2061.125036,-248.244409)">
            <g transform="matrix(1,0,0,1,1252.8662,517.8572)">
                <path d="M0,-164.866C0.012,-165.974 0.902,-166.869 1.998,-166.869C14.818,-166.869 27.638,-166.853 40.457,-166.892C42.792,-166.899 44.952,-165.648 46.125,-163.608C60.656,-138.339 75.222,-113.09 89.795,-87.846C105.176,-61.204 120.583,-34.577 135.925,-7.913C136.564,-6.801 136.846,-5.388 136.959,-4.087C137.079,-2.704 137.052,-1.309 137.025,0.142C137.006,1.168 136.18,1.993 135.165,1.993C121.415,1.993 107.665,1.972 93.915,2.029C92.674,2.033 92.06,1.602 91.477,0.583C73.643,-30.574 55.786,-61.718 37.927,-92.86C25.59,-114.372 13.235,-135.873 0.926,-157.401C0.409,-158.304 0.108,-159.316 0.051,-160.357C-0.029,-161.836 -0.016,-163.32 0,-164.866" style="fill-rule:nonzero;"/>
            </g>
            <g transform="matrix(1,0,0,1,1680.9482,374.0214)">
                <path d="M0,123.734C-0.578,124.556 -1.744,124.678 -2.514,124.036C-9.129,118.514 -15.609,113.114 -22.079,107.699C-38.345,94.083 -54.603,80.458 -70.866,66.84C-75.556,62.913 -80.594,59.334 -84.87,54.998C-92.17,47.596 -96.271,38.543 -97.226,28.032C-97.956,19.984 -96.039,10.863 -92.106,3.549C-90.152,-0.086 -85.352,-0.944 -82.208,1.707C-79.553,3.946 -76.897,6.186 -74.245,8.43C-51.114,27.995 -27.885,47.444 -4.92,67.203C1.858,73.035 5.816,80.899 7.366,89.789C9.508,102.076 7.185,113.442 0.009,123.721L0,123.734Z" style="fill-rule:nonzero;"/>
            </g>
            <g transform="matrix(1,0,0,1,1386.877,352.4512)">
                <path d="M0,133.498C-4.01,126.563 -8.021,119.628 -12.025,112.69C-20.877,97.358 -29.731,82.028 -38.545,66.674C-39.013,65.859 -39.35,64.833 -39.352,63.905C-39.396,42.664 -39.387,21.423 -39.381,0.182C-39.38,-0.674 -38.693,-1.367 -37.847,-1.367L1.325,-1.367C2.173,-1.367 2.86,-0.672 2.86,0.185L2.86,132.715C2.86,134.298 0.79,134.865 0,133.498" style="fill-rule:nonzero;"/>
            </g>
            <g transform="matrix(1,0,0,1,1294.9883,383.1158)">
                <path d="M0,136.642L-35.477,136.642C-39.09,136.642 -42.02,133.68 -42.02,130.027L-42.02,1.733C-42.02,0.455 -40.349,0 -39.713,1.104C-26.74,23.657 -13.769,46.211 -0.824,68.781C-0.245,69.789 0.061,70.935 0.062,72.102C0.089,93.202 0.084,114.301 0.08,135.401C0.08,135.767 0.034,136.133 0,136.642" style="fill-rule:nonzero;"/>
            </g>
            <g transform="matrix(1,0,0,1,1666.0039,462.9053)">
                <path d="M0,38.376C3.454,41.275 3.064,46.755 -0.765,49.124C-2.375,50.12 -4.041,51.003 -5.778,51.765C-22.219,58.971 -38.768,58.999 -54.884,51.15C-67.079,45.21 -76.348,35.977 -80.371,22.636C-85.108,6.928 -81.969,-7.36 -71.287,-19.893C-71.128,-20.08 -70.939,-20.246 -70.749,-20.403C-70.658,-20.478 -70.532,-20.51 -70.292,-20.623C-46.914,-1.001 -23.5,18.651 0,38.376" style="fill-rule:nonzero;"/>
            </g>
            <g transform="matrix(1,0,0,1,1671.9756,352.6722)">
                <path d="M0,71.548C-21.629,53.319 -43.278,35.071 -65.169,16.621C-68.603,13.727 -68.236,8.255 -64.421,5.898C-63.824,5.529 -63.222,5.173 -62.609,4.835C-52.138,-0.953 -40.816,-2.527 -29.05,-1.412C-16.469,-0.22 -5.678,4.916 3.426,13.672C19.756,29.379 21.042,53.054 9.657,70.11C7.474,73.381 2.999,74.075 0,71.548" style="fill-rule:nonzero;"/>
            </g>
            <g transform="matrix(1,0,0,1,1559.8223,349.0006)">
                <path d="M0,171.038L-46.918,171.038C-49.449,171.038 -51.753,169.561 -52.834,167.247L-102.575,60.737C-103.413,58.942 -103.41,56.861 -102.566,55.069L-79.007,5.038C-76.635,0 -69.539,0.012 -67.183,5.057L5.917,161.599C7.966,165.987 4.8,171.038 0,171.038M-76.665,171.038L-146.522,171.038C-151.328,171.038 -154.494,165.976 -152.434,161.586L-117.353,86.854C-114.982,81.807 -107.873,81.819 -105.521,86.874L-70.744,161.606C-68.703,165.994 -71.869,171.038 -76.665,171.038" style="fill-rule:nonzero;"/>
            </g>
            <g transform="matrix(1,0,0,1,1229.5303,347.9864)">
                <path d="M0,171.038L-46.918,171.038C-49.449,171.038 -51.753,169.561 -52.834,167.247L-102.575,60.737C-103.413,58.942 -103.41,56.862 -102.566,55.069L-79.007,5.038C-76.635,0 -69.539,0.012 -67.183,5.057L5.917,161.599C7.966,165.987 4.8,171.038 0,171.038M-76.665,171.038L-146.522,171.038C-151.328,171.038 -154.494,165.976 -152.434,161.586L-117.353,86.854C-114.982,81.807 -107.873,81.819 -105.521,86.875L-70.744,161.607C-68.703,165.994 -71.869,171.038 -76.665,171.038" style="fill-rule:nonzero;"/>
            </g>
            <g transform="matrix(1,0,0,1,1690.0039,723.1911)">
                <path d="M0,-155.072C0,-158.743 2.957,-161.713 6.588,-161.688C13.206,-161.643 19.765,-161.576 26.318,-161.756C45.452,-162.279 64.452,-145.132 63.077,-122.653C62.057,-105.969 49.685,-91.781 33.323,-88.612C32.787,-88.508 32.262,-88.347 31.271,-88.095C34.13,-87.469 36.561,-87.037 38.936,-86.401C57.608,-81.401 71.677,-64.093 73.342,-44.674C75.309,-21.748 61.195,-3.135 43.256,3.901C37.952,5.981 32.431,7.207 26.665,7.163C18.489,7.1 10.313,7.148 2.138,7.148C0.957,7.148 0,6.18 0,4.987L0,-155.072Z" style="fill-rule:nonzero;"/>
            </g>
            <g transform="matrix(1,0,0,1,1575.9902,618.5624)">
                <path d="M0,54.13C12.061,69.688 24.132,85.26 36.273,100.922C39.639,105.263 36.582,111.62 31.126,111.62L-22.398,111.62C-26.012,111.62 -28.941,108.658 -28.941,105.005L-28.941,-50.57C-28.941,-54.146 -26.13,-57.104 -22.594,-57.187C-9.653,-57.49 2.574,-55.07 13.287,-46.559C25.438,-36.906 32.978,-24.635 33.951,-8.847C35.375,14.247 25.484,31.199 5.64,42.474C4.655,43.033 3.631,43.522 2.578,43.973C-1.38,45.668 -2.651,50.71 0,54.13" style="fill-rule:nonzero;"/>
            </g>
            <g transform="matrix(1,0,0,1,1500.8262,730.1883)">
                <path d="M0,-168.66L28.828,-168.66C32.442,-168.66 35.371,-165.698 35.371,-162.045L35.371,-6.615C35.371,-2.962 32.442,0 28.828,0L0,0C-3.613,0 -6.543,-2.962 -6.543,-6.615L-6.543,-162.045C-6.543,-165.698 -3.613,-168.66 0,-168.66" style="fill-rule:nonzero;"/>
            </g>
            <g transform="matrix(1,0,0,1,1679.1777,723.6296)">
                <path d="M0,-155.406L0,-0.001C0,3.654 -2.93,6.615 -6.543,6.615L-35.407,6.615C-39.021,6.615 -41.95,3.654 -41.95,-0.001L-41.95,-155.406C-41.95,-159.06 -39.021,-162.021 -35.407,-162.021L-6.543,-162.021C-2.93,-162.021 0,-159.06 0,-155.406" style="fill-rule:nonzero;"/>
            </g>
            <g transform="matrix(1,0,0,1,1817.4111,561.5647)">
                <path d="M0,168.697L-28.872,168.697C-32.486,168.697 -35.415,165.735 -35.415,162.082L-35.415,6.615C-35.415,2.962 -32.486,0 -28.872,0L0,0C3.613,0 6.543,2.962 6.543,6.615L6.543,162.082C6.543,165.735 3.613,168.697 0,168.697" style="fill-rule:nonzero;"/>
            </g>
            <g transform="matrix(1,0,0,1,1943.8115,561.5569)">
                <path d="M0,168.697L-28.88,168.697C-32.494,168.697 -35.423,165.735 -35.423,162.082L-35.423,6.615C-35.423,2.962 -32.494,0 -28.88,0L0,0C3.614,0 6.543,2.962 6.543,6.615L6.543,162.082C6.543,165.735 3.614,168.697 0,168.697" style="fill-rule:nonzero;"/>
            </g>
            <g transform="matrix(1,0,0,1,1897.7656,723.6518)">
                <path d="M0,-39.559L0,0C0,3.653 -2.93,6.615 -6.543,6.615L-56.806,6.615C-60.42,6.615 -63.349,3.653 -63.349,0L-63.349,-39.559C-63.349,-43.212 -60.42,-46.174 -56.806,-46.174L-6.543,-46.174C-2.93,-46.174 0,-43.212 0,-39.559" style="fill-rule:nonzero;"/>
            </g>
            <g transform="matrix(1,0,0,1,2024.1719,723.5923)">
                <path d="M0,-39.439L0,-0.001C0,3.653 -2.929,6.615 -6.543,6.615L-56.83,6.615C-60.443,6.615 -63.373,3.653 -63.373,-0.001L-63.373,-39.439C-63.373,-43.093 -60.443,-46.054 -56.83,-46.054L-6.543,-46.054C-2.929,-46.054 0,-43.093 0,-39.439" style="fill-rule:nonzero;"/>
            </g>
            <g transform="matrix(1,0,0,1,2024.1563,597.0052)">
                <path d="M0,-28.846L0,-0.001C0,3.652 -2.93,6.614 -6.543,6.614L-56.784,6.614C-60.397,6.614 -63.327,3.652 -63.327,-0.001L-63.327,-28.846C-63.327,-32.499 -60.397,-35.46 -56.784,-35.46L-6.543,-35.46C-2.93,-35.46 0,-32.499 0,-28.846" style="fill-rule:nonzero;"/>
            </g>
            <g transform="matrix(1,0,0,1,1985.9668,614.3605)">
                <path d="M0,42.119L-18.563,42.119C-22.177,42.119 -25.106,39.157 -25.106,35.504L-25.106,6.615C-25.106,2.962 -22.177,0 -18.563,0L0,0C3.613,0 6.543,2.962 6.543,6.615L6.543,35.504C6.543,39.157 3.613,42.119 0,42.119" style="fill-rule:nonzero;"/>
            </g>
            <g transform="matrix(1,0,0,1,1149.0918,559.0551)">
                <path d="M0,171.692L-66.272,171.692C-71.148,171.692 -74.361,166.325 -72.271,161.671L-38.99,87.597C-36.646,82.379 -29.312,82.392 -26.983,87.618L6.008,161.693C8.079,166.344 4.866,171.692 0,171.692M74.282,171.692L29.803,171.692C27.234,171.692 24.896,170.127 23.799,167.673L-23.98,60.774C-24.835,58.864 -24.831,56.673 -23.972,54.765L-1.638,5.209C0.709,0.001 8.03,0.012 10.361,5.227L80.286,161.684C82.365,166.337 79.152,171.692 74.282,171.692M148.142,171.692L103.662,171.692C101.094,171.692 98.755,170.127 97.658,167.673L49.879,60.774C49.024,58.864 49.028,56.673 49.888,54.765L72.222,5.207C74.568,0 81.889,0.011 84.22,5.226L154.146,161.684C156.225,166.337 153.012,171.692 148.142,171.692M322.763,171.692L276.584,171.692C273.917,171.692 271.489,170.137 270.351,167.699L220.745,61.477C219.861,59.587 219.865,57.395 220.754,55.506L243.942,6.262C246.441,0.956 253.917,0.967 256.399,6.283L328.996,161.748C331.155,166.371 327.819,171.692 322.763,171.692M246.055,171.692L177.249,171.692C172.187,171.692 168.852,166.359 171.022,161.735L205.575,88.129C208.071,82.811 215.561,82.824 218.039,88.15L252.291,161.756C254.442,166.379 251.106,171.692 246.055,171.692" style="fill-rule:nonzero;"/>
            </g>
        </g>
    </g>
</svg>
