<?xml version="1.0" encoding="UTF-8" standalone="no"?>
<!DOCTYPE svg PUBLIC "-//W3C//DTD SVG 1.1//EN" "http://www.w3.org/Graphics/SVG/1.1/DTD/svg11.dtd">
<svg width="100%" height="100%" viewBox="0 0 1322 1320" version="1.1" xmlns="http://www.w3.org/2000/svg" xmlns:xlink="http://www.w3.org/1999/xlink" xml:space="preserve" xmlns:serif="http://www.serif.com/" style="fill-rule:evenodd;clip-rule:evenodd;stroke-linejoin:round;stroke-miterlimit:2;">
    <g transform="matrix(1,0,0,1,-520.52325,-285.248698)">
        <g transform="matrix(2.353804,0,0,2.353804,-599.482636,-326.172075)">
            <g transform="matrix(1,0,0,1,1036.2031,424.0035)">
                <path d="M0,41.641C0,74.725 0.009,107.809 -0.003,140.893C-0.017,183.851 -31.162,206.352 -71.683,189.993C-112.552,173.492 -153.989,163.652 -197.987,168.247C-220.72,170.622 -243.275,174.81 -265.848,178.56C-285.886,181.888 -305.358,182.031 -317.11,162.176C-338.726,125.658 -374.923,93.498 -365.604,46.01C-360.031,17.607 -346.705,-9.922 -333.245,-35.972C-313.801,-73.603 -292.014,-110.142 -269.077,-145.762C-263.439,-154.518 -249.645,-162.62 -239.324,-162.975C-188.803,-164.711 -138.175,-164.447 -87.611,-163.492C-41.537,-162.623 -2.182,-124.156 -0.591,-78.03C0.783,-38.184 -0.306,1.747 -0.306,41.641L0,41.641Z" style="fill:rgb(111,122,130);fill-rule:nonzero;"/>
            </g>
            <g transform="matrix(1,0,0,1,476.5547,390.8776)">
                <path d="M0,49.869C-0.002,18.781 -0.723,-12.327 0.164,-43.389C1.562,-92.402 38.928,-129.605 87.711,-130.447C130.43,-131.184 173.186,-129.915 215.896,-130.861C240.471,-131.406 250.219,-117.538 242.283,-98.268C230.743,-70.246 215.764,-42.715 197.476,-18.598C162.187,27.935 124.312,72.589 85.971,116.683C69.067,136.123 48.99,152.983 29.252,169.713C15.612,181.275 0.788,173.759 0.273,154.783C-0.676,119.835 0.002,84.843 0,49.869" style="fill:rgb(107,92,65);fill-rule:nonzero;"/>
            </g>
            <g transform="matrix(1,0,0,1,879.584,620.9211)">
                <path d="M0,199.076C-22.33,199.102 -44.661,198.938 -66.988,199.158C-82.95,199.314 -91.396,193.555 -93.741,175.987C-97.938,144.553 -108.071,113.688 -110.047,82.229C-113.315,30.188 -71.273,-0.666 -29.879,1.34C28.321,4.16 85.796,8.563 136.559,40.195C145.979,46.066 152.569,59.919 155.764,71.396C159.024,83.115 156.854,96.458 156.438,109.069C154.828,157.858 116.046,197.072 66.982,198.907C44.685,199.742 22.329,199.049 0,199.076" style="fill:rgb(52,57,61);fill-rule:nonzero;"/>
            </g>
            <g transform="matrix(1,0,0,1,745.2002,629.4864)">
                <path d="M0,187.915C-68.475,187.915 -134.436,191.396 -199.788,186.598C-238.403,183.762 -266.98,142.077 -268.527,103.224C-272.028,15.267 -268.532,10.924 -180.081,-0.898C-164.723,-2.951 -149.053,-3.238 -133.521,-3.317C-101.817,-3.481 -76.666,6.747 -59.258,36.336C-31.594,83.357 -2.438,129.216 0,187.915" style="fill:rgb(166,148,114);fill-rule:nonzero;"/>
            </g>
            <g transform="matrix(1,0,0,1,613.4404,504.8544)">
                <path d="M0,98.838C-30.704,97.247 -60.663,105.449 -69.993,76.206C-79.13,47.567 -50.475,37.076 -32.891,21.391C-17.021,7.235 -2.738,-6.611 19.635,4.33C36.739,12.694 58.12,57.233 53.894,76.749C52.471,83.318 44.783,91.646 38.385,93.391C23.708,97.393 8.062,97.839 0,98.838" style="fill:rgb(166,148,114);fill-rule:nonzero;"/>
            </g>
        </g>
    </g>
</svg>
