<svg xmlns="http://www.w3.org/2000/svg" xmlns:xlink="http://www.w3.org/1999/xlink" width="250" zoomAndPan="magnify" viewBox="0 0 187.5 44.999999" height="60" preserveAspectRatio="xMidYMid meet" version="1.0"><defs><g/><clipPath id="89c758049a"><path d="M 14 0.0859375 L 25 0.0859375 L 25 13 L 14 13 Z M 14 0.0859375 " clip-rule="nonzero"/></clipPath><clipPath id="83bf08fe26"><path d="M 21 0.0859375 L 25 0.0859375 L 25 11 L 21 11 Z M 21 0.0859375 " clip-rule="nonzero"/></clipPath><clipPath id="2038ab9210"><path d="M 40 0.0859375 L 47 0.0859375 L 47 6 L 40 6 Z M 40 0.0859375 " clip-rule="nonzero"/></clipPath><clipPath id="39f6976069"><path d="M 25 0.0859375 L 38 0.0859375 L 38 13 L 25 13 Z M 25 0.0859375 " clip-rule="nonzero"/></clipPath><clipPath id="b5e9118947"><path d="M 1 0.0859375 L 13 0.0859375 L 13 13 L 1 13 Z M 1 0.0859375 " clip-rule="nonzero"/></clipPath><clipPath id="c538856e66"><path d="M 117 3 L 177.871094 3 L 177.871094 35.035156 L 117 35.035156 Z M 117 3 " clip-rule="nonzero"/></clipPath><clipPath id="a819bdf2cb"><rect x="0" width="61" y="0" height="33"/></clipPath><clipPath id="2199fee662"><rect x="0" width="178" y="0" height="36"/></clipPath></defs><g transform="matrix(1, 0, 0, 1, 5, 5)"><g clip-path="url(#2199fee662)"><g clip-path="url(#89c758049a)"><path fill="#ebebeb" d="M 14.121094 0.523438 C 14.121094 0.441406 14.1875 0.375 14.265625 0.375 C 15.210938 0.375 16.15625 0.378906 17.101562 0.375 C 17.273438 0.375 17.429688 0.464844 17.519531 0.617188 C 18.589844 2.476562 19.660156 4.339844 20.734375 6.199219 C 21.867188 8.160156 23.003906 10.121094 24.132812 12.085938 C 24.179688 12.167969 24.199219 12.273438 24.210938 12.367188 C 24.21875 12.46875 24.214844 12.574219 24.214844 12.679688 C 24.210938 12.753906 24.152344 12.816406 24.078125 12.816406 C 23.0625 12.816406 22.050781 12.8125 21.039062 12.820312 C 20.945312 12.820312 20.902344 12.789062 20.859375 12.710938 C 19.542969 10.417969 18.230469 8.121094 16.914062 5.828125 C 16.003906 4.242188 15.09375 2.660156 14.1875 1.074219 C 14.148438 1.007812 14.128906 0.933594 14.125 0.855469 C 14.117188 0.746094 14.117188 0.636719 14.121094 0.523438 " fill-opacity="1" fill-rule="nonzero"/></g><path fill="#ebebeb" d="M 45.65625 11.1875 C 45.613281 11.25 45.527344 11.257812 45.46875 11.210938 C 44.984375 10.804688 44.503906 10.40625 44.027344 10.007812 C 42.832031 9.003906 41.632812 8 40.433594 6.996094 C 40.089844 6.707031 39.71875 6.445312 39.402344 6.125 C 38.867188 5.578125 38.5625 4.914062 38.492188 4.136719 C 38.4375 3.546875 38.582031 2.875 38.871094 2.335938 C 39.015625 2.066406 39.367188 2.003906 39.597656 2.199219 C 39.792969 2.363281 39.992188 2.527344 40.1875 2.695312 C 41.890625 4.136719 43.601562 5.566406 45.292969 7.023438 C 45.792969 7.453125 46.082031 8.03125 46.199219 8.6875 C 46.355469 9.59375 46.183594 10.429688 45.65625 11.1875 Z M 45.65625 11.1875 " fill-opacity="1" fill-rule="nonzero"/><g clip-path="url(#83bf08fe26)"><path fill="#ebebeb" d="M 23.992188 10.320312 C 23.695312 9.808594 23.402344 9.296875 23.105469 8.785156 C 22.453125 7.65625 21.800781 6.527344 21.152344 5.394531 C 21.117188 5.335938 21.09375 5.261719 21.09375 5.191406 C 21.089844 3.628906 21.089844 2.0625 21.089844 0.496094 C 21.089844 0.433594 21.140625 0.382812 21.203125 0.382812 L 24.089844 0.382812 C 24.152344 0.382812 24.203125 0.433594 24.203125 0.496094 L 24.203125 10.261719 C 24.203125 10.378906 24.050781 10.417969 23.992188 10.320312 " fill-opacity="1" fill-rule="nonzero"/></g><path fill="#ebebeb" d="M 17.222656 12.808594 L 14.609375 12.808594 C 14.34375 12.808594 14.128906 12.589844 14.128906 12.320312 L 14.128906 2.871094 C 14.128906 2.777344 14.25 2.742188 14.296875 2.824219 C 15.253906 4.484375 16.207031 6.148438 17.160156 7.808594 C 17.203125 7.882812 17.226562 7.96875 17.226562 8.054688 C 17.230469 9.609375 17.230469 11.164062 17.230469 12.71875 C 17.230469 12.746094 17.226562 12.773438 17.222656 12.808594 " fill-opacity="1" fill-rule="nonzero"/><path fill="#ebebeb" d="M 44.554688 11.449219 C 44.808594 11.660156 44.78125 12.066406 44.496094 12.238281 C 44.378906 12.3125 44.257812 12.378906 44.128906 12.433594 C 42.917969 12.964844 41.699219 12.96875 40.511719 12.390625 C 39.613281 11.953125 38.929688 11.269531 38.632812 10.289062 C 38.285156 9.132812 38.515625 8.078125 39.304688 7.15625 C 39.316406 7.140625 39.328125 7.128906 39.34375 7.117188 C 39.347656 7.113281 39.359375 7.109375 39.375 7.101562 C 41.097656 8.546875 42.824219 9.996094 44.554688 11.449219 " fill-opacity="1" fill-rule="nonzero"/><g clip-path="url(#2038ab9210)"><path fill="#ebebeb" d="M 44.996094 5.769531 C 43.402344 4.429688 41.804688 3.085938 40.195312 1.726562 C 39.941406 1.511719 39.96875 1.109375 40.25 0.933594 C 40.292969 0.90625 40.335938 0.882812 40.382812 0.855469 C 41.152344 0.429688 41.988281 0.3125 42.855469 0.394531 C 43.78125 0.484375 44.574219 0.863281 45.246094 1.507812 C 46.449219 2.664062 46.542969 4.410156 45.707031 5.664062 C 45.542969 5.90625 45.214844 5.957031 44.996094 5.769531 " fill-opacity="1" fill-rule="nonzero"/></g><g clip-path="url(#39f6976069)"><path fill="#ebebeb" d="M 36.730469 12.828125 L 33.277344 12.828125 C 33.089844 12.828125 32.917969 12.722656 32.839844 12.550781 L 29.175781 4.703125 C 29.113281 4.570312 29.113281 4.417969 29.175781 4.285156 L 30.910156 0.601562 C 31.085938 0.230469 31.609375 0.230469 31.78125 0.601562 L 37.167969 12.132812 C 37.320312 12.457031 37.085938 12.828125 36.730469 12.828125 M 31.085938 12.828125 L 25.9375 12.828125 C 25.585938 12.828125 25.351562 12.457031 25.503906 12.132812 L 28.085938 6.628906 C 28.261719 6.257812 28.785156 6.257812 28.957031 6.628906 L 31.519531 12.136719 C 31.671875 12.457031 31.4375 12.828125 31.085938 12.828125 " fill-opacity="1" fill-rule="nonzero"/></g><g clip-path="url(#b5e9118947)"><path fill="#ebebeb" d="M 12.402344 12.753906 L 8.945312 12.753906 C 8.757812 12.753906 8.589844 12.644531 8.507812 12.476562 L 4.84375 4.628906 C 4.78125 4.496094 4.78125 4.34375 4.84375 4.210938 L 6.582031 0.527344 C 6.753906 0.15625 7.277344 0.15625 7.453125 0.527344 L 12.835938 12.058594 C 12.988281 12.382812 12.753906 12.753906 12.402344 12.753906 M 6.753906 12.753906 L 1.605469 12.753906 C 1.253906 12.753906 1.019531 12.382812 1.171875 12.058594 L 3.753906 6.554688 C 3.929688 6.183594 4.453125 6.183594 4.628906 6.554688 L 7.1875 12.058594 C 7.339844 12.382812 7.105469 12.753906 6.753906 12.753906 " fill-opacity="1" fill-rule="nonzero"/></g><path fill="#ebebeb" d="M 46.324219 16.371094 C 46.324219 16.101562 46.539062 15.882812 46.808594 15.882812 C 47.296875 15.886719 47.777344 15.894531 48.261719 15.878906 C 49.671875 15.839844 51.070312 17.105469 50.96875 18.761719 C 50.894531 19.988281 49.984375 21.035156 48.777344 21.269531 C 48.738281 21.273438 48.699219 21.289062 48.625 21.304688 C 48.835938 21.351562 49.015625 21.382812 49.191406 21.429688 C 50.566406 21.800781 51.601562 23.074219 51.726562 24.503906 C 51.871094 26.191406 50.832031 27.566406 49.507812 28.082031 C 49.117188 28.234375 48.710938 28.328125 48.285156 28.324219 C 47.683594 28.320312 47.082031 28.320312 46.480469 28.320312 C 46.394531 28.320312 46.324219 28.25 46.324219 28.164062 Z M 46.324219 16.371094 " fill-opacity="1" fill-rule="nonzero"/><path fill="#ebebeb" d="M 37.921875 24.074219 C 38.8125 25.222656 39.699219 26.367188 40.59375 27.523438 C 40.84375 27.84375 40.617188 28.308594 40.214844 28.308594 L 36.273438 28.308594 C 36.007812 28.308594 35.792969 28.09375 35.792969 27.824219 L 35.792969 16.363281 C 35.792969 16.097656 36 15.882812 36.257812 15.875 C 37.210938 15.851562 38.113281 16.03125 38.902344 16.65625 C 39.796875 17.367188 40.351562 18.273438 40.425781 19.4375 C 40.527344 21.136719 39.800781 22.386719 38.339844 23.214844 C 38.265625 23.257812 38.191406 23.292969 38.113281 23.328125 C 37.820312 23.453125 37.726562 23.824219 37.921875 24.074219 " fill-opacity="1" fill-rule="nonzero"/><path fill="#ebebeb" d="M 32.386719 15.886719 L 34.511719 15.886719 C 34.777344 15.886719 34.992188 16.105469 34.992188 16.375 L 34.992188 27.824219 C 34.992188 28.09375 34.777344 28.3125 34.511719 28.3125 L 32.386719 28.3125 C 32.121094 28.3125 31.902344 28.09375 31.902344 27.824219 L 31.902344 16.375 C 31.902344 16.105469 32.121094 15.886719 32.386719 15.886719 " fill-opacity="1" fill-rule="nonzero"/><path fill="#ebebeb" d="M 45.523438 16.378906 L 45.523438 27.828125 C 45.523438 28.097656 45.308594 28.316406 45.042969 28.316406 L 42.917969 28.316406 C 42.648438 28.316406 42.433594 28.097656 42.433594 27.828125 L 42.433594 16.378906 C 42.433594 16.109375 42.648438 15.890625 42.917969 15.890625 L 45.042969 15.890625 C 45.308594 15.890625 45.523438 16.109375 45.523438 16.378906 " fill-opacity="1" fill-rule="nonzero"/><path fill="#ebebeb" d="M 55.707031 28.316406 L 53.582031 28.316406 C 53.316406 28.316406 53.097656 28.097656 53.097656 27.828125 L 53.097656 16.375 C 53.097656 16.105469 53.316406 15.890625 53.582031 15.890625 L 55.707031 15.890625 C 55.972656 15.890625 56.191406 16.105469 56.191406 16.375 L 56.191406 27.828125 C 56.191406 28.097656 55.972656 28.316406 55.707031 28.316406 " fill-opacity="1" fill-rule="nonzero"/><path fill="#ebebeb" d="M 65.019531 28.316406 L 62.890625 28.316406 C 62.625 28.316406 62.410156 28.097656 62.410156 27.828125 L 62.410156 16.375 C 62.410156 16.105469 62.625 15.886719 62.890625 15.886719 L 65.019531 15.886719 C 65.285156 15.886719 65.5 16.105469 65.5 16.375 L 65.5 27.828125 C 65.5 28.097656 65.285156 28.316406 65.019531 28.316406 " fill-opacity="1" fill-rule="nonzero"/><path fill="#ebebeb" d="M 61.628906 24.914062 L 61.628906 27.828125 C 61.628906 28.097656 61.410156 28.316406 61.144531 28.316406 L 57.441406 28.316406 C 57.175781 28.316406 56.960938 28.097656 56.960938 27.828125 L 56.960938 24.914062 C 56.960938 24.644531 57.175781 24.429688 57.441406 24.429688 L 61.144531 24.429688 C 61.410156 24.429688 61.628906 24.644531 61.628906 24.914062 " fill-opacity="1" fill-rule="nonzero"/><path fill="#ebebeb" d="M 70.9375 24.917969 L 70.9375 27.824219 C 70.9375 28.09375 70.722656 28.3125 70.457031 28.3125 L 66.753906 28.3125 C 66.488281 28.3125 66.269531 28.09375 66.269531 27.824219 L 66.269531 24.917969 C 66.269531 24.652344 66.488281 24.433594 66.753906 24.433594 L 70.457031 24.433594 C 70.722656 24.433594 70.9375 24.652344 70.9375 24.917969 " fill-opacity="1" fill-rule="nonzero"/><path fill="#ebebeb" d="M 70.9375 16.375 L 70.9375 18.5 C 70.9375 18.769531 70.722656 18.988281 70.457031 18.988281 L 66.753906 18.988281 C 66.488281 18.988281 66.273438 18.769531 66.273438 18.5 L 66.273438 16.375 C 66.273438 16.105469 66.488281 15.886719 66.753906 15.886719 L 70.457031 15.886719 C 70.722656 15.886719 70.9375 16.105469 70.9375 16.375 " fill-opacity="1" fill-rule="nonzero"/><path fill="#ebebeb" d="M 68.125 22.882812 L 66.757812 22.882812 C 66.492188 22.882812 66.277344 22.664062 66.277344 22.394531 L 66.277344 20.265625 C 66.277344 19.996094 66.492188 19.777344 66.757812 19.777344 L 68.125 19.777344 C 68.390625 19.777344 68.605469 19.996094 68.605469 20.265625 L 68.605469 22.394531 C 68.605469 22.664062 68.390625 22.882812 68.125 22.882812 " fill-opacity="1" fill-rule="nonzero"/><path fill="#ebebeb" d="M 6.476562 28.351562 L 1.59375 28.351562 C 1.234375 28.351562 0.996094 27.957031 1.152344 27.613281 L 3.601562 22.15625 C 3.777344 21.773438 4.316406 21.773438 4.488281 22.160156 L 6.917969 27.617188 C 7.070312 27.957031 6.832031 28.351562 6.476562 28.351562 M 11.945312 28.351562 L 8.671875 28.351562 C 8.480469 28.351562 8.308594 28.238281 8.226562 28.054688 L 4.707031 20.179688 C 4.644531 20.039062 4.644531 19.878906 4.710938 19.738281 L 6.355469 16.085938 C 6.527344 15.703125 7.066406 15.703125 7.238281 16.089844 L 12.390625 27.613281 C 12.542969 27.957031 12.304688 28.351562 11.945312 28.351562 M 17.386719 28.351562 L 14.113281 28.351562 C 13.921875 28.351562 13.75 28.238281 13.667969 28.054688 L 10.148438 20.179688 C 10.085938 20.039062 10.085938 19.878906 10.148438 19.738281 L 11.796875 16.085938 C 11.96875 15.703125 12.507812 15.703125 12.679688 16.089844 L 17.832031 27.613281 C 17.984375 27.957031 17.746094 28.351562 17.386719 28.351562 M 30.253906 28.351562 L 26.851562 28.351562 C 26.652344 28.351562 26.476562 28.238281 26.390625 28.058594 L 22.738281 20.234375 C 22.671875 20.09375 22.671875 19.933594 22.738281 19.792969 L 24.445312 16.164062 C 24.628906 15.773438 25.179688 15.773438 25.363281 16.167969 L 30.710938 27.621094 C 30.871094 27.960938 30.625 28.351562 30.253906 28.351562 M 24.601562 28.351562 L 19.53125 28.351562 C 19.160156 28.351562 18.914062 27.960938 19.074219 27.617188 L 21.617188 22.195312 C 21.804688 21.804688 22.355469 21.804688 22.539062 22.199219 L 25.058594 27.621094 C 25.21875 27.960938 24.972656 28.351562 24.601562 28.351562 " fill-opacity="1" fill-rule="nonzero"/><path fill="#ebebeb" d="M 98.957031 18.796875 C 98.957031 19.503906 98.957031 20.207031 98.957031 20.914062 C 98.957031 21.832031 98.292969 22.3125 97.425781 21.964844 C 96.554688 21.613281 95.667969 21.402344 94.730469 21.5 C 94.242188 21.550781 93.761719 21.640625 93.28125 21.71875 C 92.851562 21.789062 92.4375 21.792969 92.183594 21.371094 C 91.722656 20.589844 90.949219 19.902344 91.148438 18.890625 C 91.269531 18.28125 91.554688 17.695312 91.839844 17.136719 C 92.257812 16.335938 92.722656 15.554688 93.210938 14.792969 C 93.332031 14.605469 93.625 14.433594 93.847656 14.425781 C 94.925781 14.390625 96.007812 14.394531 97.085938 14.414062 C 98.070312 14.433594 98.910156 15.253906 98.945312 16.238281 C 98.972656 17.089844 98.949219 17.945312 98.949219 18.796875 Z M 98.957031 18.796875 " fill-opacity="1" fill-rule="nonzero"/><path fill="#ebebeb" d="M 87.003906 18.265625 C 87.003906 17.601562 86.992188 16.9375 87.007812 16.273438 C 87.039062 15.226562 87.835938 14.429688 88.878906 14.414062 C 89.792969 14.398438 90.703125 14.425781 91.617188 14.40625 C 92.140625 14.394531 92.347656 14.6875 92.179688 15.101562 C 91.933594 15.699219 91.613281 16.285156 91.222656 16.800781 C 90.46875 17.796875 89.660156 18.75 88.839844 19.691406 C 88.480469 20.105469 88.050781 20.464844 87.628906 20.824219 C 87.339844 21.070312 87.023438 20.910156 87.011719 20.503906 C 86.992188 19.757812 87.007812 19.011719 87.003906 18.265625 " fill-opacity="1" fill-rule="nonzero"/><path fill="#ebebeb" d="M 95.613281 26.363281 C 95.136719 26.363281 94.660156 26.359375 94.183594 26.363281 C 93.839844 26.367188 93.660156 26.246094 93.609375 25.871094 C 93.519531 25.199219 93.304688 24.539062 93.261719 23.867188 C 93.191406 22.757812 94.089844 22.097656 94.972656 22.140625 C 96.21875 22.199219 97.445312 22.292969 98.527344 22.96875 C 98.730469 23.09375 98.871094 23.390625 98.9375 23.636719 C 99.007812 23.886719 98.960938 24.171875 98.953125 24.441406 C 98.917969 25.484375 98.089844 26.320312 97.042969 26.359375 C 96.566406 26.378906 96.089844 26.363281 95.613281 26.363281 " fill-opacity="1" fill-rule="nonzero"/><path fill="#ebebeb" d="M 92.742188 26.308594 C 91.28125 26.308594 89.871094 26.382812 88.476562 26.28125 C 87.652344 26.21875 87.042969 25.328125 87.007812 24.5 C 86.933594 22.621094 87.007812 22.527344 88.898438 22.273438 C 89.226562 22.230469 89.558594 22.226562 89.890625 22.222656 C 90.570312 22.21875 91.105469 22.4375 91.476562 23.070312 C 92.066406 24.074219 92.691406 25.054688 92.742188 26.308594 " fill-opacity="1" fill-rule="nonzero"/><path fill="#ebebeb" d="M 89.929688 21.742188 C 89.273438 21.710938 88.632812 21.886719 88.433594 21.261719 C 88.238281 20.648438 88.851562 20.425781 89.226562 20.089844 C 89.566406 19.789062 89.871094 19.492188 90.347656 19.726562 C 90.714844 19.902344 91.171875 20.855469 91.078125 21.273438 C 91.050781 21.414062 90.886719 21.589844 90.75 21.628906 C 90.433594 21.710938 90.101562 21.722656 89.929688 21.742188 " fill-opacity="1" fill-rule="nonzero"/><g clip-path="url(#c538856e66)"><g transform="matrix(1, 0, 0, 1, 117, 3)"><g clip-path="url(#a819bdf2cb)"><g fill="#ebebeb" fill-opacity="1"><g transform="translate(0.986911, 25.980668)"><g><path d="M 1.25 -6.40625 L 3.75 -6.625 C 3.863281 -5.625 4.132812 -4.804688 4.5625 -4.171875 C 5 -3.535156 5.671875 -3.019531 6.578125 -2.625 C 7.484375 -2.226562 8.503906 -2.03125 9.640625 -2.03125 C 10.640625 -2.03125 11.523438 -2.175781 12.296875 -2.46875 C 13.078125 -2.769531 13.65625 -3.179688 14.03125 -3.703125 C 14.40625 -4.222656 14.59375 -4.796875 14.59375 -5.421875 C 14.59375 -6.046875 14.410156 -6.59375 14.046875 -7.0625 C 13.679688 -7.53125 13.082031 -7.921875 12.25 -8.234375 C 11.71875 -8.441406 10.535156 -8.765625 8.703125 -9.203125 C 6.867188 -9.648438 5.582031 -10.066406 4.84375 -10.453125 C 3.894531 -10.953125 3.1875 -11.570312 2.71875 -12.3125 C 2.25 -13.050781 2.015625 -13.878906 2.015625 -14.796875 C 2.015625 -15.804688 2.300781 -16.75 2.875 -17.625 C 3.445312 -18.5 4.28125 -19.160156 5.375 -19.609375 C 6.46875 -20.066406 7.6875 -20.296875 9.03125 -20.296875 C 10.507812 -20.296875 11.8125 -20.054688 12.9375 -19.578125 C 14.070312 -19.097656 14.941406 -18.394531 15.546875 -17.46875 C 16.160156 -16.550781 16.488281 -15.503906 16.53125 -14.328125 L 14 -14.140625 C 13.863281 -15.398438 13.40625 -16.351562 12.625 -17 C 11.84375 -17.644531 10.679688 -17.96875 9.140625 -17.96875 C 7.546875 -17.96875 6.382812 -17.671875 5.65625 -17.078125 C 4.925781 -16.492188 4.5625 -15.789062 4.5625 -14.96875 C 4.5625 -14.25 4.816406 -13.660156 5.328125 -13.203125 C 5.835938 -12.742188 7.164062 -12.269531 9.3125 -11.78125 C 11.457031 -11.289062 12.929688 -10.863281 13.734375 -10.5 C 14.890625 -9.96875 15.742188 -9.289062 16.296875 -8.46875 C 16.859375 -7.644531 17.140625 -6.703125 17.140625 -5.640625 C 17.140625 -4.578125 16.832031 -3.570312 16.21875 -2.625 C 15.613281 -1.6875 14.738281 -0.957031 13.59375 -0.4375 C 12.457031 0.0820312 11.179688 0.34375 9.765625 0.34375 C 7.953125 0.34375 6.4375 0.0820312 5.21875 -0.4375 C 4 -0.96875 3.039062 -1.757812 2.34375 -2.8125 C 1.65625 -3.875 1.289062 -5.070312 1.25 -6.40625 Z M 1.25 -6.40625 "/></g></g></g><g fill="#ebebeb" fill-opacity="1"><g transform="translate(18.965892, 25.980668)"><g><path d="M 7.1875 -2.1875 L 7.546875 -0.03125 C 6.847656 0.113281 6.226562 0.1875 5.6875 0.1875 C 4.800781 0.1875 4.113281 0.0429688 3.625 -0.234375 C 3.132812 -0.515625 2.785156 -0.882812 2.578125 -1.34375 C 2.378906 -1.800781 2.28125 -2.765625 2.28125 -4.234375 L 2.28125 -12.546875 L 0.484375 -12.546875 L 0.484375 -14.453125 L 2.28125 -14.453125 L 2.28125 -18.03125 L 4.71875 -19.5 L 4.71875 -14.453125 L 7.1875 -14.453125 L 7.1875 -12.546875 L 4.71875 -12.546875 L 4.71875 -4.09375 C 4.71875 -3.394531 4.757812 -2.945312 4.84375 -2.75 C 4.9375 -2.550781 5.078125 -2.390625 5.265625 -2.265625 C 5.460938 -2.148438 5.742188 -2.09375 6.109375 -2.09375 C 6.378906 -2.09375 6.738281 -2.125 7.1875 -2.1875 Z M 7.1875 -2.1875 "/></g></g></g><g fill="#ebebeb" fill-opacity="1"><g transform="translate(26.097085, 25.980668)"><g><path d="M 1.734375 5.5625 L 1.453125 3.265625 C 1.992188 3.410156 2.460938 3.484375 2.859375 3.484375 C 3.398438 3.484375 3.832031 3.390625 4.15625 3.203125 C 4.488281 3.023438 4.757812 2.773438 4.96875 2.453125 C 5.125 2.203125 5.375 1.59375 5.71875 0.625 C 5.757812 0.488281 5.832031 0.289062 5.9375 0.03125 L 0.453125 -14.453125 L 3.09375 -14.453125 L 6.09375 -6.078125 C 6.488281 -5.015625 6.835938 -3.898438 7.140625 -2.734375 C 7.421875 -3.859375 7.757812 -4.957031 8.15625 -6.03125 L 11.25 -14.453125 L 13.6875 -14.453125 L 8.1875 0.25 C 7.601562 1.832031 7.144531 2.925781 6.8125 3.53125 C 6.382812 4.332031 5.890625 4.921875 5.328125 5.296875 C 4.765625 5.671875 4.09375 5.859375 3.3125 5.859375 C 2.832031 5.859375 2.304688 5.757812 1.734375 5.5625 Z M 1.734375 5.5625 "/></g></g></g><g fill="#ebebeb" fill-opacity="1"><g transform="translate(39.421179, 25.980668)"><g><path d="M 1.78125 0 L 1.78125 -19.953125 L 4.234375 -19.953125 L 4.234375 0 Z M 1.78125 0 "/></g></g></g><g fill="#ebebeb" fill-opacity="1"><g transform="translate(45.000743, 25.980668)"><g><path d="M 11.734375 -4.65625 L 14.265625 -4.34375 C 13.867188 -2.863281 13.128906 -1.710938 12.046875 -0.890625 C 10.960938 -0.078125 9.582031 0.328125 7.90625 0.328125 C 5.789062 0.328125 4.113281 -0.320312 2.875 -1.625 C 1.632812 -2.925781 1.015625 -4.753906 1.015625 -7.109375 C 1.015625 -9.535156 1.640625 -11.421875 2.890625 -12.765625 C 4.148438 -14.109375 5.773438 -14.78125 7.765625 -14.78125 C 9.703125 -14.78125 11.28125 -14.117188 12.5 -12.796875 C 13.726562 -11.484375 14.34375 -9.632812 14.34375 -7.25 C 14.34375 -7.101562 14.335938 -6.882812 14.328125 -6.59375 L 3.546875 -6.59375 C 3.640625 -5.007812 4.085938 -3.796875 4.890625 -2.953125 C 5.703125 -2.109375 6.710938 -1.6875 7.921875 -1.6875 C 8.816406 -1.6875 9.582031 -1.921875 10.21875 -2.390625 C 10.851562 -2.867188 11.359375 -3.625 11.734375 -4.65625 Z M 3.6875 -8.609375 L 11.765625 -8.609375 C 11.648438 -9.828125 11.335938 -10.738281 10.828125 -11.34375 C 10.046875 -12.289062 9.035156 -12.765625 7.796875 -12.765625 C 6.671875 -12.765625 5.722656 -12.382812 4.953125 -11.625 C 4.191406 -10.875 3.769531 -9.867188 3.6875 -8.609375 Z M 3.6875 -8.609375 "/></g></g></g></g></g></g></g></g></svg>