<svg xmlns="http://www.w3.org/2000/svg" xmlns:xlink="http://www.w3.org/1999/xlink" width="400" zoomAndPan="magnify" viewBox="0 0 300 44.999999" height="60" preserveAspectRatio="xMidYMid meet" version="1.0"><defs><clipPath id="a3e7efc9c5"><path d="M 5.675781 8 L 24 8 L 24 38.808594 L 5.675781 38.808594 Z M 5.675781 8 " clip-rule="nonzero"/></clipPath><clipPath id="8e34e280d0"><path d="M 22 7 L 48 7 L 48 38.808594 L 22 38.808594 Z M 22 7 " clip-rule="nonzero"/></clipPath><clipPath id="7e5b8277fa"><path d="M 66 8 L 98 8 L 98 38.808594 L 66 38.808594 Z M 66 8 " clip-rule="nonzero"/></clipPath><clipPath id="88b817bcbe"><path d="M 98 8 L 119 8 L 119 38.808594 L 98 38.808594 Z M 98 8 " clip-rule="nonzero"/></clipPath><clipPath id="248d48fb0e"><path d="M 40 9 L 70 9 L 70 38.808594 L 40 38.808594 Z M 40 9 " clip-rule="nonzero"/></clipPath><clipPath id="ad9eecf827"><path d="M 274 7 L 294.425781 7 L 294.425781 38 L 274 38 Z M 274 7 " clip-rule="nonzero"/></clipPath><clipPath id="48cdd2705c"><path d="M 224 6.558594 L 248 6.558594 L 248 31 L 224 31 Z M 224 6.558594 " clip-rule="nonzero"/></clipPath><clipPath id="fd4501290f"><path d="M 127 25 L 133 25 L 133 38.808594 L 127 38.808594 Z M 127 25 " clip-rule="nonzero"/></clipPath><clipPath id="22f4793fca"><path d="M 133 24 L 143 24 L 143 38.808594 L 133 38.808594 Z M 133 24 " clip-rule="nonzero"/></clipPath><clipPath id="f238204481"><path d="M 143 28 L 153 28 L 153 38.808594 L 143 38.808594 Z M 143 28 " clip-rule="nonzero"/></clipPath></defs><g clip-path="url(#a3e7efc9c5)"><path fill="#ebebeb" d="M 20.359375 9.105469 L 21.753906 12.769531 L 21.515625 12.808594 C 21.515625 12.796875 21.144531 12.40625 20.410156 11.636719 C 19.671875 10.863281 18.832031 10.269531 17.882812 9.851562 C 16.933594 9.433594 15.859375 9.226562 14.664062 9.226562 C 12.660156 9.226562 11.070312 9.800781 9.898438 10.949219 C 8.722656 12.097656 8.136719 13.480469 8.136719 15.097656 C 8.136719 16.175781 8.410156 17.113281 8.960938 17.917969 C 9.511719 18.71875 10.664062 19.464844 12.414062 20.15625 C 15.429688 21.164062 17.488281 21.921875 18.597656 22.433594 C 19.707031 22.945312 20.773438 23.808594 21.804688 25.03125 C 22.832031 26.253906 23.347656 27.820312 23.347656 29.730469 C 23.347656 30.527344 23.253906 31.289062 23.066406 32.011719 C 22.882812 32.734375 22.582031 33.433594 22.171875 34.101562 C 21.761719 34.773438 21.265625 35.382812 20.6875 35.933594 C 20.109375 36.484375 19.523438 36.902344 18.925781 37.1875 C 18.328125 37.476562 17.386719 37.691406 16.097656 37.835938 C 14.8125 37.984375 13.960938 38.054688 13.550781 38.054688 L 5.726562 38.054688 L 5.726562 29.535156 L 6.023438 29.535156 C 6.050781 32.359375 6.714844 34.332031 8.015625 35.445312 C 9.316406 36.5625 11.339844 37.121094 14.089844 37.121094 C 16.582031 37.121094 18.476562 36.527344 19.773438 35.347656 C 21.066406 34.167969 21.714844 32.746094 21.714844 31.085938 C 21.714844 30.078125 21.488281 29.21875 21.035156 28.507812 C 20.585938 27.796875 19.953125 27.175781 19.144531 26.636719 C 18.335938 26.101562 16.800781 25.445312 14.546875 24.679688 C 12.304688 23.898438 10.726562 23.210938 9.816406 22.621094 C 8.910156 22.03125 8.148438 21.140625 7.539062 19.953125 C 6.925781 18.761719 6.621094 17.550781 6.621094 16.316406 C 6.621094 14.046875 7.402344 12.140625 8.960938 10.601562 C 10.519531 9.058594 12.570312 8.289062 15.105469 8.289062 C 16.085938 8.289062 17.148438 8.402344 18.289062 8.628906 C 19.429688 8.855469 20.066406 9 20.199219 9.066406 C 20.253906 9.09375 20.308594 9.105469 20.359375 9.105469 Z M 20.359375 9.105469 " fill-opacity="1" fill-rule="nonzero"/></g><g clip-path="url(#8e34e280d0)"><path fill="#ebebeb" d="M 47.28125 7.714844 L 45.886719 11.257812 L 45.605469 11.257812 C 45.660156 11.042969 45.6875 10.757812 45.6875 10.402344 C 45.6875 10.09375 45.578125 9.898438 45.359375 9.8125 C 45.140625 9.726562 44.789062 9.683594 44.3125 9.683594 L 36.648438 9.683594 L 36.648438 34.773438 C 36.648438 35.808594 36.730469 36.511719 36.894531 36.890625 C 37.0625 37.269531 37.289062 37.507812 37.574219 37.609375 C 37.859375 37.707031 38.320312 37.757812 38.957031 37.757812 L 38.957031 38.054688 L 31.011719 38.054688 L 31.011719 37.757812 C 32.007812 37.691406 32.632812 37.5 32.882812 37.179688 C 33.136719 36.863281 33.261719 36.199219 33.261719 35.191406 L 33.261719 9.683594 L 25.917969 9.683594 C 25.171875 9.683594 24.6875 9.726562 24.460938 9.8125 C 24.238281 9.898438 24.125 10.113281 24.125 10.460938 C 24.125 10.632812 24.175781 10.898438 24.285156 11.257812 L 24.003906 11.257812 L 22.609375 7.710938 L 22.890625 7.710938 C 23.128906 8.191406 23.363281 8.480469 23.597656 8.578125 C 23.828125 8.679688 24.328125 8.726562 25.101562 8.726562 L 44.589844 8.726562 C 45.363281 8.726562 45.914062 8.679688 46.253906 8.578125 C 46.59375 8.480469 46.839844 8.191406 47 7.710938 L 47.28125 7.710938 Z M 47.28125 7.714844 " fill-opacity="1" fill-rule="nonzero"/></g><g clip-path="url(#7e5b8277fa)"><path fill="#ebebeb" d="M 91.722656 8.726562 L 97.398438 8.726562 L 97.398438 9.027344 C 96.535156 9.054688 95.9375 9.234375 95.605469 9.574219 C 95.273438 9.914062 95.109375 10.625 95.109375 11.714844 L 95.109375 38.414062 L 71.714844 13.503906 L 71.714844 35.191406 C 71.714844 35.878906 71.765625 36.390625 71.875 36.722656 C 71.980469 37.054688 72.132812 37.28125 72.332031 37.398438 C 72.53125 37.519531 73.027344 37.636719 73.824219 37.757812 L 73.824219 38.054688 L 68.191406 38.054688 L 68.191406 37.757812 C 69.199219 37.757812 69.824219 37.578125 70.070312 37.21875 C 70.316406 36.863281 70.441406 36.007812 70.441406 34.652344 L 70.441406 14.816406 C 70.441406 13.078125 70.199219 11.660156 69.714844 10.558594 C 69.226562 9.457031 68.109375 8.949219 66.359375 9.027344 L 66.359375 8.726562 L 71.875 8.726562 L 93.855469 32.132812 L 93.855469 11.433594 C 93.855469 10.320312 93.65625 9.640625 93.257812 9.394531 C 92.859375 9.148438 92.347656 9.027344 91.722656 9.027344 Z M 91.722656 8.726562 " fill-opacity="1" fill-rule="nonzero"/></g><g clip-path="url(#88b817bcbe)"><path fill="#ebebeb" d="M 98.734375 9.066406 L 98.734375 8.726562 L 117.167969 8.726562 L 117.167969 12.769531 L 116.871094 12.769531 C 116.472656 11.269531 116.136719 10.386719 115.867188 10.121094 C 115.59375 9.855469 114.925781 9.722656 113.863281 9.722656 L 104.1875 9.722656 L 104.1875 22.882812 L 113.167969 22.882812 C 114.058594 22.882812 114.621094 22.800781 114.859375 22.636719 C 115.097656 22.46875 115.226562 22.226562 115.238281 21.910156 L 115.539062 21.910156 L 115.539062 24.675781 L 115.238281 24.675781 C 115.171875 24.292969 115.015625 24.03125 114.769531 23.898438 C 114.523438 23.765625 114.070312 23.699219 113.40625 23.699219 L 104.1875 23.699219 L 104.1875 32.761719 C 104.1875 34.128906 104.316406 35.113281 104.566406 35.714844 C 104.820312 36.320312 105.21875 36.699219 105.769531 36.851562 C 106.320312 37.003906 107.15625 37.082031 108.269531 37.082031 L 113.445312 37.082031 C 115.09375 37.082031 116.144531 37.023438 116.601562 36.914062 C 117.058594 36.800781 117.449219 36.574219 117.765625 36.238281 C 118.085938 35.902344 118.332031 35.167969 118.503906 34.035156 L 118.78125 34.035156 L 118.78125 38.054688 L 98.734375 38.054688 L 98.734375 37.757812 C 99.410156 37.71875 99.925781 37.589844 100.277344 37.371094 C 100.628906 37.152344 100.804688 36.582031 100.804688 35.667969 L 100.804688 11.992188 C 100.804688 10.917969 100.710938 10.160156 100.523438 9.722656 C 100.339844 9.285156 99.742188 9.066406 98.734375 9.066406 Z M 98.734375 9.066406 " fill-opacity="1" fill-rule="nonzero"/></g><g clip-path="url(#248d48fb0e)"><path fill="#ebebeb" d="M 54.804688 9.710938 C 62.726562 9.710938 69.160156 16.140625 69.160156 24.0625 C 69.160156 31.984375 62.726562 38.414062 54.804688 38.414062 C 46.882812 38.414062 40.453125 31.984375 40.453125 24.0625 C 40.453125 16.140625 46.882812 9.710938 54.804688 9.710938 Z M 65.222656 20.882812 C 65.222656 22.066406 65.222656 23.25 65.222656 24.433594 C 65.222656 25.972656 64.109375 26.777344 62.65625 26.191406 C 61.195312 25.601562 59.710938 25.25 58.136719 25.414062 C 57.320312 25.5 56.515625 25.648438 55.707031 25.78125 C 54.988281 25.902344 54.292969 25.90625 53.871094 25.195312 C 53.097656 23.890625 51.800781 22.738281 52.136719 21.039062 C 52.335938 20.019531 52.8125 19.035156 53.292969 18.101562 C 53.988281 16.757812 54.769531 15.449219 55.589844 14.171875 C 55.792969 13.859375 56.285156 13.570312 56.65625 13.558594 C 58.464844 13.496094 60.277344 13.503906 62.085938 13.539062 C 63.738281 13.570312 65.144531 14.945312 65.203125 16.597656 C 65.25 18.023438 65.210938 19.453125 65.210938 20.882812 Z M 45.1875 19.992188 C 45.1875 18.878906 45.164062 17.765625 45.195312 16.652344 C 45.246094 14.898438 46.582031 13.566406 48.328125 13.535156 C 49.859375 13.507812 51.386719 13.554688 52.917969 13.519531 C 53.796875 13.5 54.144531 13.996094 53.863281 14.6875 C 53.449219 15.691406 52.914062 16.675781 52.257812 17.539062 C 50.996094 19.207031 49.640625 20.804688 48.265625 22.382812 C 47.660156 23.078125 46.941406 23.683594 46.234375 24.28125 C 45.746094 24.695312 45.21875 24.425781 45.199219 23.746094 C 45.164062 22.496094 45.1875 21.242188 45.1875 19.992188 M 59.617188 33.566406 C 58.816406 33.566406 58.019531 33.5625 57.21875 33.570312 C 56.648438 33.574219 56.34375 33.371094 56.261719 32.742188 C 56.109375 31.617188 55.75 30.511719 55.675781 29.382812 C 55.558594 27.519531 57.066406 26.417969 58.546875 26.488281 C 60.628906 26.589844 62.6875 26.746094 64.503906 27.878906 C 64.84375 28.089844 65.078125 28.585938 65.191406 28.996094 C 65.308594 29.414062 65.230469 29.894531 65.21875 30.34375 C 65.160156 32.089844 63.769531 33.496094 62.015625 33.5625 C 61.214844 33.589844 60.417969 33.566406 59.617188 33.566406 M 54.804688 33.472656 C 52.355469 33.472656 49.992188 33.597656 47.652344 33.425781 C 46.273438 33.324219 45.25 31.832031 45.191406 30.441406 C 45.066406 27.292969 45.191406 27.136719 48.359375 26.714844 C 48.910156 26.640625 49.46875 26.632812 50.027344 26.628906 C 51.160156 26.621094 52.0625 26.988281 52.683594 28.046875 C 53.675781 29.730469 54.71875 31.371094 54.804688 33.472656 M 50.089844 25.824219 C 48.988281 25.765625 47.917969 26.058594 47.582031 25.011719 C 47.257812 23.988281 48.28125 23.613281 48.910156 23.050781 C 49.480469 22.542969 49.992188 22.046875 50.792969 22.441406 C 51.40625 22.738281 52.167969 24.332031 52.019531 25.03125 C 51.96875 25.269531 51.691406 25.566406 51.464844 25.628906 C 50.9375 25.773438 50.378906 25.789062 50.089844 25.824219 " fill-opacity="1" fill-rule="evenodd"/></g><path fill="#ebebeb" d="M 213.960938 36.910156 L 213.960938 37.207031 L 202.113281 37.207031 C 199.839844 37.207031 197.851562 36.960938 196.140625 36.472656 C 194.433594 35.980469 192.691406 35.042969 190.917969 33.667969 C 189.140625 32.292969 187.707031 30.582031 186.609375 28.535156 C 185.511719 26.484375 184.960938 24.390625 184.960938 22.25 C 184.960938 19.910156 185.652344 17.578125 187.027344 15.25 C 188.402344 12.925781 190.359375 11.03125 192.902344 9.578125 C 195.441406 8.121094 198.320312 7.394531 201.535156 7.394531 C 204.421875 7.394531 207.472656 8.03125 210.691406 9.308594 L 211.90625 12.699219 L 211.628906 12.699219 C 210.605469 11.394531 209.203125 10.316406 207.429688 9.457031 C 205.65625 8.597656 203.675781 8.171875 201.496094 8.171875 C 197.707031 8.171875 194.601562 9.597656 192.183594 12.449219 C 189.761719 15.300781 188.554688 18.839844 188.554688 23.070312 C 188.554688 24.824219 188.753906 26.390625 189.152344 27.765625 C 189.550781 29.140625 190.296875 30.496094 191.394531 31.832031 C 192.492188 33.171875 193.667969 34.152344 194.925781 34.785156 C 196.179688 35.417969 197.585938 35.855469 199.144531 36.101562 C 200.699219 36.347656 201.933594 36.457031 202.851562 36.429688 L 204.429688 36.390625 C 206.210938 36.324219 207.324219 36.160156 207.769531 35.890625 C 208.214844 35.625 208.4375 34.949219 208.4375 33.859375 L 208.4375 29.410156 C 208.4375 28.546875 208.257812 27.964844 207.898438 27.664062 C 207.539062 27.367188 207.027344 27.238281 206.363281 27.277344 L 206.363281 26.976562 L 213.960938 26.976562 L 213.960938 27.277344 C 213.109375 27.277344 212.542969 27.441406 212.257812 27.773438 C 211.96875 28.105469 211.828125 28.742188 211.828125 29.683594 L 211.828125 34.300781 C 211.828125 35.230469 211.949219 35.898438 212.195312 36.300781 C 212.441406 36.707031 212.890625 36.910156 213.542969 36.910156 Z M 213.960938 36.910156 " fill-opacity="1" fill-rule="nonzero"/><path fill="#ebebeb" d="M 215.136719 37.207031 L 215.136719 36.910156 C 216.054688 36.910156 216.648438 36.738281 216.921875 36.390625 C 217.195312 36.046875 217.332031 35.453125 217.332031 34.617188 L 217.332031 10.582031 C 217.332031 9.730469 217.226562 9.117188 217.011719 8.738281 C 216.800781 8.359375 216.160156 8.15625 215.097656 8.128906 L 215.097656 7.832031 L 222.976562 7.832031 L 222.976562 8.128906 C 222.246094 8.128906 221.734375 8.222656 221.441406 8.410156 C 221.148438 8.597656 220.953125 8.816406 220.863281 9.066406 C 220.769531 9.320312 220.722656 9.890625 220.722656 10.78125 L 220.722656 31.40625 C 220.722656 33.171875 221.148438 34.417969 222 35.144531 C 222.851562 35.871094 224.304688 36.230469 226.367188 36.230469 L 229.957031 36.230469 C 231.683594 36.230469 232.949219 35.804688 233.753906 34.957031 C 234.558594 34.105469 235.007812 32.503906 235.101562 30.148438 L 235.382812 30.148438 L 235.382812 37.207031 Z M 215.136719 37.207031 " fill-opacity="1" fill-rule="nonzero"/><path fill="#ebebeb" d="M 250.339844 8.128906 L 250.339844 7.832031 L 257.976562 7.832031 C 260.210938 7.832031 261.792969 7.925781 262.722656 8.109375 C 263.65625 8.296875 264.546875 8.652344 265.394531 9.175781 C 266.246094 9.703125 266.972656 10.460938 267.570312 11.449219 C 268.167969 12.441406 268.46875 13.570312 268.46875 14.832031 C 268.46875 17.316406 267.246094 19.277344 264.796875 20.714844 C 266.914062 21.074219 268.507812 21.949219 269.585938 23.335938 C 270.660156 24.726562 271.199219 26.414062 271.199219 28.394531 C 271.199219 30.242188 270.738281 31.921875 269.8125 33.4375 C 268.890625 34.953125 267.832031 35.960938 266.644531 36.460938 C 265.453125 36.960938 263.789062 37.207031 261.648438 37.207031 L 250.300781 37.207031 L 250.300781 36.910156 C 251.203125 36.910156 251.78125 36.726562 252.035156 36.359375 C 252.285156 35.996094 252.414062 35.0625 252.414062 33.5625 L 252.414062 11.4375 C 252.414062 10.375 252.382812 9.652344 252.324219 9.265625 C 252.261719 8.882812 252.066406 8.59375 251.734375 8.410156 C 251.402344 8.222656 250.9375 8.128906 250.339844 8.128906 Z M 255.804688 8.449219 L 255.804688 21.351562 L 259.375 21.351562 C 261.792969 21.351562 263.398438 20.660156 264.191406 19.277344 C 264.980469 17.894531 265.375 16.519531 265.375 15.152344 C 265.375 13.675781 265.070312 12.441406 264.460938 11.453125 C 263.847656 10.460938 262.953125 9.710938 261.777344 9.207031 C 260.601562 8.703125 258.867188 8.449219 256.582031 8.449219 Z M 258.097656 21.972656 L 255.804688 21.972656 L 255.804688 31.285156 C 255.804688 32.574219 255.851562 33.414062 255.953125 33.796875 C 256.050781 34.183594 256.277344 34.589844 256.632812 35.015625 C 256.984375 35.441406 257.550781 35.78125 258.335938 36.042969 C 259.121094 36.300781 260.25 36.429688 261.726562 36.429688 C 264.011719 36.429688 265.628906 35.902344 266.574219 34.84375 C 267.515625 33.789062 267.988281 32.222656 267.988281 30.148438 C 267.988281 27.996094 267.570312 26.238281 266.734375 24.882812 C 265.894531 23.527344 264.949219 22.703125 263.890625 22.410156 C 262.832031 22.117188 260.902344 21.972656 258.097656 21.972656 Z M 258.097656 21.972656 " fill-opacity="1" fill-rule="nonzero"/><g clip-path="url(#ad9eecf827)"><path fill="#ebebeb" d="M 274.070312 8.171875 L 274.070312 7.832031 L 292.539062 7.832031 L 292.539062 11.878906 L 292.242188 11.878906 C 291.84375 10.378906 291.507812 9.492188 291.234375 9.226562 C 290.960938 8.960938 290.292969 8.828125 289.230469 8.828125 L 279.535156 8.828125 L 279.535156 22.011719 L 288.53125 22.011719 C 289.421875 22.011719 289.988281 21.929688 290.226562 21.761719 C 290.464844 21.597656 290.59375 21.351562 290.605469 21.035156 L 290.90625 21.035156 L 290.90625 23.804688 L 290.605469 23.804688 C 290.539062 23.421875 290.382812 23.160156 290.136719 23.027344 C 289.890625 22.894531 289.433594 22.828125 288.769531 22.828125 L 279.535156 22.828125 L 279.535156 31.902344 C 279.535156 33.273438 279.664062 34.261719 279.914062 34.867188 C 280.167969 35.46875 280.570312 35.847656 281.121094 36.003906 C 281.671875 36.15625 282.507812 36.230469 283.625 36.230469 L 288.808594 36.230469 C 290.457031 36.230469 291.511719 36.175781 291.972656 36.0625 C 292.429688 35.949219 292.820312 35.726562 293.136719 35.390625 C 293.457031 35.050781 293.703125 34.316406 293.875 33.179688 L 294.15625 33.179688 L 294.15625 37.207031 L 274.070312 37.207031 L 274.070312 36.910156 C 274.75 36.871094 275.265625 36.738281 275.617188 36.519531 C 275.96875 36.300781 276.144531 35.734375 276.144531 34.816406 L 276.144531 11.101562 C 276.144531 10.023438 276.054688 9.265625 275.867188 8.828125 C 275.679688 8.390625 275.082031 8.171875 274.070312 8.171875 Z M 274.070312 8.171875 " fill-opacity="1" fill-rule="nonzero"/></g><g clip-path="url(#48cdd2705c)"><path fill="#ebebeb" d="M 224.578125 21.167969 C 224.265625 19.875 224.164062 18.507812 224.316406 17.109375 C 225.019531 10.621094 230.855469 5.925781 237.34375 6.625 C 243.832031 7.328125 248.53125 13.167969 247.828125 19.65625 C 247.707031 20.773438 247.433594 21.839844 247.03125 22.832031 L 244.324219 14.574219 C 244.222656 14.265625 243.808594 14.21875 243.640625 14.5 L 242.074219 17.144531 C 242.011719 17.246094 242 17.371094 242.035156 17.480469 L 244.097656 23.78125 C 244.148438 23.925781 244.269531 24.027344 244.417969 24.042969 L 246.339844 24.25 C 244.074219 28.207031 239.617188 30.660156 234.800781 30.140625 C 229.984375 29.617188 226.152344 26.265625 224.785156 21.917969 L 228.714844 22.34375 C 229.003906 22.375 229.226562 22.097656 229.132812 21.820312 L 227.625 17.449219 C 227.515625 17.132812 227.085938 17.085938 226.910156 17.371094 Z M 233.097656 22.820312 C 233.386719 22.851562 233.609375 22.570312 233.515625 22.296875 L 230.316406 13.058594 C 230.207031 12.742188 229.78125 12.695312 229.605469 12.980469 L 227.980469 15.621094 C 227.917969 15.722656 227.902344 15.84375 227.941406 15.957031 L 230.128906 22.269531 C 230.175781 22.414062 230.308594 22.515625 230.460938 22.535156 Z M 242.746094 23.863281 C 243.023438 23.890625 243.238281 23.613281 243.148438 23.335938 L 240.128906 14.121094 C 240.027344 13.8125 239.613281 13.765625 239.449219 14.042969 L 237.878906 16.691406 C 237.816406 16.792969 237.804688 16.914062 237.839844 17.027344 L 239.90625 23.328125 C 239.953125 23.472656 240.074219 23.574219 240.222656 23.589844 Z M 238.527344 23.40625 C 238.804688 23.4375 239.019531 23.15625 238.929688 22.882812 L 237.507812 18.519531 C 237.40625 18.210938 236.992188 18.164062 236.824219 18.441406 L 234.484375 22.398438 C 234.339844 22.648438 234.488281 22.96875 234.765625 23 Z M 238.527344 23.40625 " fill-opacity="1" fill-rule="evenodd"/></g><path fill="#ebebeb" d="M 132.703125 21.78125 C 132.101562 22.292969 131.519531 22.652344 130.960938 22.863281 C 130.40625 23.074219 129.808594 23.179688 129.167969 23.179688 C 128.113281 23.179688 127.300781 22.921875 126.734375 22.40625 C 126.167969 21.890625 125.886719 21.234375 125.886719 20.433594 C 125.886719 19.960938 125.992188 19.53125 126.207031 19.144531 C 126.421875 18.753906 126.699219 18.441406 127.046875 18.207031 C 127.394531 17.972656 127.785156 17.796875 128.21875 17.675781 C 128.539062 17.589844 129.019531 17.507812 129.664062 17.429688 C 130.980469 17.273438 131.945312 17.085938 132.566406 16.871094 C 132.574219 16.648438 132.578125 16.503906 132.578125 16.445312 C 132.578125 15.78125 132.421875 15.316406 132.117188 15.042969 C 131.699219 14.675781 131.082031 14.492188 130.261719 14.492188 C 129.496094 14.492188 128.929688 14.625 128.566406 14.894531 C 128.203125 15.164062 127.933594 15.636719 127.757812 16.320312 L 126.164062 16.101562 C 126.3125 15.421875 126.546875 14.871094 126.878906 14.453125 C 127.210938 14.03125 127.691406 13.710938 128.316406 13.484375 C 128.945312 13.257812 129.671875 13.144531 130.496094 13.144531 C 131.316406 13.144531 131.984375 13.242188 132.496094 13.433594 C 133.007812 13.628906 133.382812 13.871094 133.625 14.164062 C 133.867188 14.453125 134.035156 14.824219 134.132812 15.269531 C 134.183594 15.546875 134.210938 16.046875 134.210938 16.769531 L 134.210938 18.941406 C 134.210938 20.453125 134.246094 21.410156 134.316406 21.8125 C 134.386719 22.210938 134.523438 22.597656 134.726562 22.964844 L 133.027344 22.964844 C 132.859375 22.625 132.75 22.230469 132.703125 21.78125 Z M 132.566406 18.144531 C 131.976562 18.386719 131.089844 18.589844 129.910156 18.757812 C 129.238281 18.855469 128.765625 18.964844 128.488281 19.085938 C 128.210938 19.207031 128 19.382812 127.847656 19.613281 C 127.695312 19.847656 127.621094 20.105469 127.621094 20.386719 C 127.621094 20.820312 127.785156 21.183594 128.113281 21.472656 C 128.441406 21.761719 128.921875 21.90625 129.558594 21.90625 C 130.183594 21.90625 130.742188 21.769531 131.230469 21.496094 C 131.71875 21.21875 132.078125 20.84375 132.304688 20.367188 C 132.480469 20 132.566406 19.457031 132.566406 18.742188 Z M 132.566406 18.144531 " fill-opacity="1" fill-rule="nonzero"/><path fill="#ebebeb" d="M 135.976562 22.964844 L 135.976562 13.363281 L 137.441406 13.363281 L 137.441406 14.816406 C 137.816406 14.136719 138.160156 13.6875 138.476562 13.46875 C 138.792969 13.253906 139.140625 13.144531 139.519531 13.144531 C 140.070312 13.144531 140.625 13.320312 141.191406 13.667969 L 140.632812 15.179688 C 140.234375 14.945312 139.835938 14.828125 139.4375 14.828125 C 139.082031 14.828125 138.765625 14.933594 138.480469 15.148438 C 138.199219 15.363281 137.996094 15.660156 137.875 16.039062 C 137.695312 16.617188 137.605469 17.25 137.605469 17.9375 L 137.605469 22.964844 Z M 135.976562 22.964844 " fill-opacity="1" fill-rule="nonzero"/><path fill="#ebebeb" d="M 140.8125 18.164062 C 140.8125 16.386719 141.308594 15.066406 142.296875 14.210938 C 143.121094 13.5 144.128906 13.144531 145.316406 13.144531 C 146.636719 13.144531 147.714844 13.578125 148.554688 14.441406 C 149.390625 15.308594 149.808594 16.503906 149.808594 18.027344 C 149.808594 19.261719 149.625 20.234375 149.253906 20.941406 C 148.882812 21.652344 148.34375 22.203125 147.636719 22.59375 C 146.929688 22.984375 146.15625 23.179688 145.316406 23.179688 C 143.972656 23.179688 142.886719 22.75 142.058594 21.886719 C 141.230469 21.027344 140.8125 19.785156 140.8125 18.164062 Z M 142.488281 18.164062 C 142.488281 19.390625 142.753906 20.3125 143.292969 20.925781 C 143.828125 21.535156 144.503906 21.84375 145.316406 21.84375 C 146.125 21.84375 146.796875 21.535156 147.332031 20.921875 C 147.871094 20.304688 148.136719 19.367188 148.136719 18.109375 C 148.136719 16.921875 147.867188 16.023438 147.328125 15.410156 C 146.789062 14.796875 146.117188 14.492188 145.316406 14.492188 C 144.503906 14.492188 143.828125 14.796875 143.292969 15.40625 C 142.753906 16.015625 142.488281 16.933594 142.488281 18.164062 Z M 142.488281 18.164062 " fill-opacity="1" fill-rule="nonzero"/><path fill="#ebebeb" d="M 157.269531 22.964844 L 157.269531 21.554688 C 156.523438 22.636719 155.507812 23.179688 154.222656 23.179688 C 153.65625 23.179688 153.128906 23.074219 152.636719 22.855469 C 152.144531 22.636719 151.78125 22.367188 151.542969 22.039062 C 151.304688 21.707031 151.136719 21.304688 151.039062 20.832031 C 150.972656 20.511719 150.941406 20.003906 150.941406 19.3125 L 150.941406 13.363281 L 152.570312 13.363281 L 152.570312 18.6875 C 152.570312 19.539062 152.601562 20.109375 152.667969 20.40625 C 152.769531 20.832031 152.988281 21.167969 153.320312 21.414062 C 153.652344 21.65625 154.0625 21.78125 154.550781 21.78125 C 155.039062 21.78125 155.496094 21.65625 155.921875 21.402344 C 156.351562 21.152344 156.652344 20.8125 156.832031 20.382812 C 157.007812 19.953125 157.097656 19.328125 157.097656 18.507812 L 157.097656 13.363281 L 158.726562 13.363281 L 158.726562 22.964844 Z M 157.269531 22.964844 " fill-opacity="1" fill-rule="nonzero"/><path fill="#ebebeb" d="M 160.535156 22.964844 L 160.535156 13.363281 L 162 13.363281 L 162 14.726562 C 162.703125 13.671875 163.722656 13.144531 165.054688 13.144531 C 165.632812 13.144531 166.167969 13.25 166.652344 13.457031 C 167.136719 13.664062 167.5 13.9375 167.742188 14.273438 C 167.980469 14.613281 168.152344 15.011719 168.246094 15.476562 C 168.308594 15.777344 168.335938 16.304688 168.335938 17.058594 L 168.335938 22.964844 L 166.710938 22.964844 L 166.710938 17.125 C 166.710938 16.460938 166.648438 15.964844 166.519531 15.636719 C 166.394531 15.308594 166.167969 15.046875 165.847656 14.847656 C 165.523438 14.652344 165.144531 14.554688 164.710938 14.554688 C 164.019531 14.554688 163.421875 14.777344 162.917969 15.214844 C 162.414062 15.65625 162.164062 16.488281 162.164062 17.71875 L 162.164062 22.964844 Z M 160.535156 22.964844 " fill-opacity="1" fill-rule="nonzero"/><path fill="#ebebeb" d="M 176.320312 22.964844 L 176.320312 21.753906 C 175.710938 22.703125 174.816406 23.179688 173.636719 23.179688 C 172.871094 23.179688 172.167969 22.96875 171.523438 22.546875 C 170.882812 22.125 170.386719 21.535156 170.035156 20.78125 C 169.679688 20.023438 169.503906 19.15625 169.503906 18.171875 C 169.503906 17.214844 169.664062 16.34375 169.984375 15.5625 C 170.304688 14.78125 170.78125 14.183594 171.421875 13.769531 C 172.058594 13.351562 172.773438 13.144531 173.5625 13.144531 C 174.144531 13.144531 174.65625 13.265625 175.109375 13.511719 C 175.5625 13.753906 175.929688 14.074219 176.214844 14.464844 L 176.214844 9.710938 L 177.832031 9.710938 L 177.832031 22.964844 Z M 171.175781 18.171875 C 171.175781 19.402344 171.4375 20.320312 171.953125 20.929688 C 172.472656 21.539062 173.085938 21.84375 173.789062 21.84375 C 174.5 21.84375 175.105469 21.550781 175.601562 20.96875 C 176.101562 20.386719 176.347656 19.5 176.347656 18.308594 C 176.347656 16.992188 176.09375 16.027344 175.589844 15.414062 C 175.082031 14.800781 174.460938 14.492188 173.71875 14.492188 C 172.996094 14.492188 172.390625 14.789062 171.90625 15.378906 C 171.417969 15.96875 171.175781 16.898438 171.175781 18.171875 Z M 171.175781 18.171875 " fill-opacity="1" fill-rule="nonzero"/><g clip-path="url(#fd4501290f)"><path fill="#ebebeb" d="M 132.46875 28.59375 L 132.46875 30.621094 L 130.730469 30.621094 L 130.730469 34.488281 C 130.730469 35.273438 130.75 35.730469 130.78125 35.859375 C 130.816406 35.988281 130.890625 36.097656 131.007812 36.179688 C 131.125 36.265625 131.269531 36.308594 131.4375 36.308594 C 131.671875 36.308594 132.011719 36.226562 132.457031 36.0625 L 132.675781 38.035156 C 132.085938 38.289062 131.414062 38.414062 130.667969 38.414062 C 130.210938 38.414062 129.796875 38.335938 129.429688 38.183594 C 129.0625 38.03125 128.792969 37.832031 128.621094 37.585938 C 128.449219 37.34375 128.328125 37.011719 128.261719 36.597656 C 128.207031 36.300781 128.183594 35.703125 128.183594 34.804688 L 128.183594 30.621094 L 127.015625 30.621094 L 127.015625 28.59375 L 128.183594 28.59375 L 128.183594 26.6875 L 130.730469 25.203125 L 130.730469 28.59375 Z M 132.46875 28.59375 " fill-opacity="1" fill-rule="nonzero"/></g><g clip-path="url(#22f4793fca)"><path fill="#ebebeb" d="M 136.023438 24.941406 L 136.023438 29.816406 C 136.839844 28.855469 137.820312 28.378906 138.960938 28.378906 C 139.542969 28.378906 140.070312 28.488281 140.542969 28.703125 C 141.011719 28.921875 141.367188 29.199219 141.605469 29.535156 C 141.84375 29.871094 142.003906 30.246094 142.09375 30.65625 C 142.179688 31.066406 142.222656 31.703125 142.222656 32.5625 L 142.222656 38.195312 L 139.683594 38.195312 L 139.683594 33.125 C 139.683594 32.117188 139.636719 31.480469 139.539062 31.207031 C 139.441406 30.9375 139.273438 30.722656 139.027344 30.5625 C 138.785156 30.402344 138.476562 30.320312 138.109375 30.320312 C 137.6875 30.320312 137.3125 30.425781 136.980469 30.628906 C 136.648438 30.835938 136.40625 31.144531 136.253906 31.554688 C 136.097656 31.96875 136.023438 32.578125 136.023438 33.386719 L 136.023438 38.195312 L 133.480469 38.195312 L 133.480469 24.941406 Z M 136.023438 24.941406 " fill-opacity="1" fill-rule="nonzero"/></g><g clip-path="url(#f238204481)"><path fill="#ebebeb" d="M 149.621094 35.140625 L 152.152344 35.566406 C 151.828125 36.496094 151.3125 37.199219 150.609375 37.6875 C 149.910156 38.171875 149.03125 38.414062 147.976562 38.414062 C 146.304688 38.414062 145.070312 37.867188 144.269531 36.777344 C 143.636719 35.902344 143.320312 34.800781 143.320312 33.46875 C 143.320312 31.878906 143.734375 30.632812 144.566406 29.730469 C 145.398438 28.828125 146.449219 28.378906 147.722656 28.378906 C 149.148438 28.378906 150.277344 28.851562 151.101562 29.792969 C 151.929688 30.738281 152.324219 32.179688 152.289062 34.128906 L 145.921875 34.128906 C 145.941406 34.882812 146.144531 35.46875 146.539062 35.886719 C 146.929688 36.304688 147.417969 36.515625 148 36.515625 C 148.398438 36.515625 148.734375 36.40625 149.003906 36.191406 C 149.277344 35.972656 149.480469 35.625 149.621094 35.140625 Z M 149.765625 32.574219 C 149.746094 31.839844 149.558594 31.277344 149.195312 30.894531 C 148.832031 30.511719 148.394531 30.320312 147.875 30.320312 C 147.320312 30.320312 146.863281 30.523438 146.5 30.929688 C 146.140625 31.332031 145.960938 31.878906 145.96875 32.574219 Z M 149.765625 32.574219 " fill-opacity="1" fill-rule="nonzero"/></g></svg>