<svg xmlns="http://www.w3.org/2000/svg" xmlns:xlink="http://www.w3.org/1999/xlink" width="1080" zoomAndPan="magnify" viewBox="0 0 810 1079.999946" height="1440" preserveAspectRatio="xMidYMid meet" version="1.0"><defs><clipPath id="97b6410023"><path d="M 217 495 L 287 495 L 287 562.246094 L 217 562.246094 Z M 217 495 " clip-rule="nonzero"/></clipPath><clipPath id="116cffb529"><path d="M 159 498 L 224 498 L 224 562.246094 L 159 562.246094 Z M 159 498 " clip-rule="nonzero"/></clipPath><clipPath id="1e636688cf"><path d="M 571 490.996094 L 625 490.996094 L 625 545 L 571 545 Z M 571 490.996094 " clip-rule="nonzero"/></clipPath><clipPath id="544d3870ab"><path d="M 353 532 L 367 532 L 367 562.246094 L 353 562.246094 Z M 353 532 " clip-rule="nonzero"/></clipPath><clipPath id="7a7dbee43d"><path d="M 367 532 L 388 532 L 388 562.246094 L 367 562.246094 Z M 367 532 " clip-rule="nonzero"/></clipPath><clipPath id="99e5c91b54"><path d="M 390 539 L 411 539 L 411 562.246094 L 390 562.246094 Z M 390 539 " clip-rule="nonzero"/></clipPath></defs><path fill="#ebebeb" d="M 113.882812 496.71875 L 117.015625 504.945312 L 116.476562 505.035156 C 116.476562 505.007812 115.648438 504.125 113.996094 502.398438 C 112.339844 500.667969 110.449219 499.335938 108.316406 498.394531 C 106.1875 497.457031 103.78125 496.988281 101.097656 496.988281 C 96.597656 496.988281 93.027344 498.277344 90.390625 500.855469 C 87.75 503.433594 86.433594 506.539062 86.433594 510.175781 C 86.433594 512.589844 87.050781 514.699219 88.289062 516.503906 C 89.523438 518.304688 92.109375 519.980469 96.046875 521.53125 C 102.8125 523.792969 107.4375 525.496094 109.925781 526.644531 C 112.417969 527.792969 114.816406 529.738281 117.125 532.480469 C 119.4375 535.222656 120.589844 538.742188 120.589844 543.035156 C 120.589844 544.824219 120.382812 546.53125 119.964844 548.15625 C 119.546875 549.78125 118.875 551.34375 117.953125 552.851562 C 117.027344 554.355469 115.917969 555.726562 114.621094 556.964844 C 113.324219 558.203125 112.007812 559.140625 110.664062 559.78125 C 109.324219 560.421875 107.207031 560.90625 104.316406 561.234375 C 101.425781 561.5625 99.515625 561.726562 98.59375 561.726562 L 81.023438 561.726562 L 81.023438 542.589844 L 81.691406 542.589844 C 81.753906 548.941406 83.242188 553.367188 86.164062 555.871094 C 89.085938 558.375 93.628906 559.625 99.800781 559.625 C 105.402344 559.625 109.660156 558.300781 112.566406 555.644531 C 115.472656 552.992188 116.925781 549.804688 116.925781 546.078125 C 116.925781 543.8125 116.417969 541.882812 115.402344 540.289062 C 114.390625 538.695312 112.976562 537.292969 111.15625 536.085938 C 109.339844 534.878906 105.894531 533.414062 100.828125 531.6875 C 95.792969 529.933594 92.253906 528.394531 90.210938 527.066406 C 88.167969 525.738281 86.460938 523.742188 85.089844 521.074219 C 83.71875 518.40625 83.035156 515.683594 83.035156 512.910156 C 83.035156 507.8125 84.785156 503.53125 88.289062 500.074219 C 91.789062 496.617188 96.386719 494.886719 102.082031 494.886719 C 104.285156 494.886719 106.671875 495.140625 109.234375 495.644531 C 111.796875 496.152344 113.226562 496.480469 113.527344 496.628906 C 113.644531 496.6875 113.765625 496.71875 113.882812 496.71875 Z M 113.882812 496.71875 " fill-opacity="1" fill-rule="nonzero"/><path fill="#ebebeb" d="M 174.335938 493.589844 L 171.203125 501.546875 L 170.578125 501.546875 C 170.699219 501.070312 170.757812 500.429688 170.757812 499.625 C 170.757812 498.941406 170.511719 498.5 170.019531 498.308594 C 169.527344 498.113281 168.746094 498.015625 167.671875 498.015625 L 150.460938 498.015625 L 150.460938 554.355469 C 150.460938 556.679688 150.644531 558.265625 151.019531 559.113281 C 151.390625 559.960938 151.898438 560.5 152.539062 560.722656 C 153.179688 560.945312 154.214844 561.058594 155.644531 561.058594 L 155.644531 561.726562 L 137.808594 561.726562 L 137.808594 561.058594 C 140.042969 560.90625 141.441406 560.476562 142.007812 559.761719 C 142.574219 559.046875 142.859375 557.558594 142.859375 555.292969 L 142.859375 498.015625 L 126.359375 498.015625 C 124.691406 498.015625 123.605469 498.113281 123.097656 498.308594 C 122.589844 498.5 122.335938 498.984375 122.335938 499.757812 C 122.335938 500.148438 122.457031 500.742188 122.695312 501.546875 L 122.070312 501.546875 L 118.9375 493.589844 L 119.566406 493.589844 C 120.101562 494.664062 120.628906 495.3125 121.152344 495.535156 C 121.675781 495.757812 122.800781 495.871094 124.527344 495.871094 L 168.296875 495.871094 C 170.027344 495.871094 171.273438 495.757812 172.03125 495.535156 C 172.792969 495.308594 173.351562 494.664062 173.707031 493.589844 Z M 174.335938 493.589844 " fill-opacity="1" fill-rule="nonzero"/><g clip-path="url(#97b6410023)"><path fill="#ebebeb" d="M 274.136719 495.871094 L 286.878906 495.871094 L 286.878906 496.539062 C 284.941406 496.601562 283.601562 497.011719 282.855469 497.769531 C 282.109375 498.53125 281.738281 500.132812 281.738281 502.578125 L 281.738281 562.53125 L 229.203125 506.597656 L 229.203125 555.292969 C 229.203125 556.84375 229.324219 557.988281 229.5625 558.734375 C 229.800781 559.480469 230.144531 559.984375 230.589844 560.253906 C 231.039062 560.519531 232.15625 560.789062 233.941406 561.058594 L 233.941406 561.726562 L 221.289062 561.726562 L 221.289062 561.058594 C 223.554688 561.058594 224.964844 560.65625 225.515625 559.851562 C 226.066406 559.046875 226.34375 557.125 226.34375 554.085938 L 226.34375 509.542969 C 226.34375 505.640625 225.796875 502.453125 224.710938 499.980469 C 223.625 497.507812 221.113281 496.363281 217.175781 496.542969 L 217.175781 495.871094 L 229.5625 495.871094 L 278.921875 548.425781 L 278.921875 501.949219 C 278.921875 499.445312 278.472656 497.917969 277.578125 497.367188 C 276.6875 496.816406 275.539062 496.539062 274.136719 496.539062 Z M 274.136719 495.871094 " fill-opacity="1" fill-rule="nonzero"/></g><path fill="#ebebeb" d="M 289.878906 496.628906 L 289.878906 495.871094 L 331.28125 495.871094 L 331.28125 504.945312 L 330.609375 504.945312 C 329.714844 501.578125 328.960938 499.597656 328.351562 499 C 327.738281 498.402344 326.242188 498.105469 323.859375 498.105469 L 302.128906 498.105469 L 302.128906 527.660156 L 322.292969 527.660156 C 324.289062 527.660156 325.554688 527.472656 326.09375 527.101562 C 326.628906 526.726562 326.914062 526.183594 326.941406 525.46875 L 327.613281 525.46875 L 327.613281 531.683594 L 326.941406 531.683594 C 326.792969 530.820312 326.441406 530.238281 325.890625 529.9375 C 325.339844 529.640625 324.320312 529.492188 322.828125 529.492188 L 302.128906 529.492188 L 302.128906 549.835938 C 302.128906 552.90625 302.410156 555.117188 302.976562 556.472656 C 303.542969 557.832031 304.445312 558.679688 305.683594 559.023438 C 306.921875 559.367188 308.789062 559.539062 311.292969 559.539062 L 322.917969 559.539062 C 326.613281 559.539062 328.976562 559.410156 330.003906 559.160156 C 331.035156 558.90625 331.90625 558.40625 332.621094 557.648438 C 333.335938 556.894531 333.886719 555.242188 334.273438 552.695312 L 334.902344 552.695312 L 334.902344 561.726562 L 289.878906 561.726562 L 289.878906 561.058594 C 291.398438 560.96875 292.554688 560.675781 293.34375 560.1875 C 294.132812 559.695312 294.527344 558.421875 294.527344 556.367188 L 294.527344 503.199219 C 294.527344 500.785156 294.320312 499.089844 293.902344 498.105469 C 293.484375 497.121094 292.144531 496.628906 289.878906 496.628906 Z M 289.878906 496.628906 " fill-opacity="1" fill-rule="nonzero"/><g clip-path="url(#116cffb529)"><path fill="#ebebeb" d="M 191.234375 498.074219 C 209.023438 498.074219 223.464844 512.515625 223.464844 530.300781 C 223.464844 548.089844 209.023438 562.53125 191.234375 562.53125 C 173.449219 562.53125 159.007812 548.089844 159.007812 530.300781 C 159.007812 512.515625 173.449219 498.074219 191.234375 498.074219 Z M 214.628906 523.160156 C 214.628906 525.820312 214.628906 528.480469 214.628906 531.140625 C 214.628906 534.59375 212.125 536.402344 208.867188 535.085938 C 205.582031 533.761719 202.25 532.96875 198.714844 533.339844 C 196.886719 533.53125 195.074219 533.867188 193.257812 534.167969 C 191.648438 534.4375 190.082031 534.449219 189.136719 532.851562 C 187.398438 529.914062 184.488281 527.332031 185.238281 523.511719 C 185.6875 521.230469 186.757812 519.015625 187.839844 516.921875 C 189.402344 513.898438 191.15625 510.960938 193 508.097656 C 193.453125 507.390625 194.5625 506.742188 195.390625 506.710938 C 199.453125 506.574219 203.523438 506.59375 207.585938 506.671875 C 211.289062 506.742188 214.453125 509.832031 214.582031 513.542969 C 214.691406 516.746094 214.605469 519.953125 214.605469 523.160156 Z M 169.640625 521.160156 C 169.640625 518.660156 169.582031 516.160156 169.652344 513.664062 C 169.765625 509.722656 172.769531 506.730469 176.691406 506.664062 C 180.125 506.605469 183.5625 506.707031 186.996094 506.632812 C 188.972656 506.585938 189.753906 507.703125 189.117188 509.25 C 188.1875 511.503906 186.984375 513.71875 185.515625 515.65625 C 182.679688 519.398438 179.632812 522.988281 176.550781 526.53125 C 175.191406 528.09375 173.578125 529.449219 171.992188 530.792969 C 170.894531 531.722656 169.703125 531.121094 169.660156 529.59375 C 169.585938 526.785156 169.640625 523.972656 169.640625 521.160156 M 202.039062 551.648438 C 200.242188 551.648438 198.449219 551.636719 196.652344 551.65625 C 195.371094 551.667969 194.691406 551.203125 194.503906 549.792969 C 194.167969 547.265625 193.351562 544.785156 193.191406 542.253906 C 192.929688 538.070312 196.308594 535.589844 199.636719 535.753906 C 204.316406 535.980469 208.9375 536.332031 213.015625 538.875 C 213.773438 539.347656 214.304688 540.460938 214.5625 541.382812 C 214.824219 542.324219 214.648438 543.398438 214.617188 544.414062 C 214.484375 548.335938 211.367188 551.488281 207.425781 551.632812 C 205.632812 551.703125 203.835938 551.644531 202.039062 551.648438 M 191.238281 551.4375 C 185.730469 551.4375 180.429688 551.71875 175.175781 551.332031 C 172.070312 551.105469 169.773438 547.753906 169.648438 544.628906 C 169.367188 537.558594 169.648438 537.210938 176.761719 536.261719 C 177.996094 536.09375 179.253906 536.070312 180.503906 536.066406 C 183.050781 536.050781 185.074219 536.875 186.472656 539.253906 C 188.695312 543.035156 191.039062 546.71875 191.234375 551.4375 M 180.644531 534.257812 C 178.175781 534.132812 175.769531 534.789062 175.015625 532.4375 C 174.28125 530.136719 176.585938 529.292969 178 528.03125 C 179.277344 526.894531 180.425781 525.78125 182.222656 526.660156 C 183.597656 527.332031 185.316406 530.914062 184.976562 532.484375 C 184.863281 533.011719 184.242188 533.679688 183.730469 533.820312 C 182.550781 534.140625 181.292969 534.179688 180.644531 534.257812 " fill-opacity="1" fill-rule="evenodd"/></g><path fill="#ebebeb" d="M 548.632812 559.152344 L 548.632812 559.824219 L 522.03125 559.824219 C 516.925781 559.824219 512.453125 559.273438 508.617188 558.167969 C 504.78125 557.0625 500.871094 554.964844 496.882812 551.875 C 492.898438 548.785156 489.671875 544.941406 487.210938 540.34375 C 484.746094 535.746094 483.515625 531.042969 483.515625 526.238281 C 483.515625 520.980469 485.058594 515.742188 488.148438 510.515625 C 491.242188 505.292969 495.636719 501.042969 501.339844 497.773438 C 507.042969 494.507812 513.507812 492.871094 520.730469 492.871094 C 527.210938 492.871094 534.0625 494.304688 541.289062 497.171875 L 544.019531 504.785156 L 543.394531 504.785156 C 541.09375 501.859375 537.953125 499.433594 533.964844 497.507812 C 529.980469 495.582031 525.539062 494.617188 520.640625 494.617188 C 512.132812 494.617188 505.160156 497.820312 499.726562 504.222656 C 494.292969 510.628906 491.578125 518.578125 491.578125 528.074219 C 491.578125 532.011719 492.023438 535.53125 492.917969 538.621094 C 493.816406 541.710938 495.496094 544.753906 497.957031 547.757812 C 500.421875 550.757812 503.0625 552.964844 505.886719 554.382812 C 508.707031 555.800781 511.863281 556.789062 515.359375 557.339844 C 518.851562 557.890625 521.628906 558.136719 523.6875 558.078125 L 527.226562 557.988281 C 531.226562 557.839844 533.726562 557.46875 534.726562 556.871094 C 535.726562 556.273438 536.226562 554.75 536.226562 552.300781 L 536.226562 542.316406 C 536.226562 540.375 535.824219 539.066406 535.019531 538.394531 C 534.210938 537.722656 533.0625 537.433594 531.570312 537.523438 L 531.570312 536.851562 L 548.632812 536.851562 L 548.632812 537.523438 C 546.722656 537.523438 545.445312 537.894531 544.804688 538.640625 C 544.160156 539.382812 543.839844 540.816406 543.839844 542.929688 L 543.839844 553.300781 C 543.839844 555.382812 544.117188 556.882812 544.667969 557.789062 C 545.222656 558.699219 546.230469 559.152344 547.691406 559.152344 Z M 548.632812 559.152344 " fill-opacity="1" fill-rule="nonzero"/><path fill="#ebebeb" d="M 551.277344 559.824219 L 551.277344 559.152344 C 553.335938 559.152344 554.671875 558.765625 555.285156 557.988281 C 555.894531 557.214844 556.203125 555.886719 556.203125 554.007812 L 556.203125 500.035156 C 556.203125 498.125 555.964844 496.742188 555.484375 495.894531 C 555.007812 495.042969 553.574219 494.585938 551.1875 494.527344 L 551.1875 493.855469 L 568.875 493.855469 L 568.875 494.527344 C 567.234375 494.527344 566.085938 494.738281 565.429688 495.15625 C 564.769531 495.574219 564.339844 496.066406 564.128906 496.632812 C 563.921875 497.199219 563.816406 498.484375 563.816406 500.484375 L 563.816406 546.792969 C 563.816406 550.761719 564.769531 553.5625 566.683594 555.191406 C 568.59375 556.816406 571.863281 557.632812 576.488281 557.632812 L 584.550781 557.632812 C 588.433594 557.632812 591.277344 556.675781 593.082031 554.765625 C 594.890625 552.855469 595.898438 549.257812 596.105469 543.972656 L 596.734375 543.972656 L 596.734375 559.824219 Z M 551.277344 559.824219 " fill-opacity="1" fill-rule="nonzero"/><path fill="#ebebeb" d="M 630.320312 494.527344 L 630.320312 493.855469 L 647.476562 493.855469 C 652.492188 493.855469 656.042969 494.066406 658.132812 494.484375 C 660.222656 494.902344 662.222656 495.699219 664.136719 496.878906 C 666.046875 498.058594 667.671875 499.761719 669.015625 501.984375 C 670.359375 504.210938 671.03125 506.738281 671.03125 509.574219 C 671.03125 515.160156 668.285156 519.5625 662.792969 522.789062 C 667.539062 523.59375 671.121094 525.554688 673.539062 528.675781 C 675.957031 531.796875 677.167969 535.582031 677.167969 540.03125 C 677.167969 544.179688 676.128906 547.957031 674.054688 551.359375 C 671.980469 554.765625 669.605469 557.027344 666.933594 558.144531 C 664.261719 559.265625 660.523438 559.824219 655.714844 559.824219 L 630.234375 559.824219 L 630.234375 559.152344 C 632.261719 559.152344 633.5625 558.742188 634.128906 557.921875 C 634.695312 557.101562 634.980469 555.003906 634.980469 551.632812 L 634.980469 501.957031 C 634.980469 499.570312 634.914062 497.945312 634.777344 497.078125 C 634.644531 496.214844 634.203125 495.570312 633.457031 495.15625 C 632.710938 494.738281 631.667969 494.527344 630.324219 494.527344 Z M 642.59375 495.246094 L 642.59375 524.222656 L 650.609375 524.222656 C 656.042969 524.222656 659.648438 522.667969 661.425781 519.5625 C 663.203125 516.457031 664.089844 513.367188 664.089844 510.292969 C 664.089844 506.976562 663.402344 504.210938 662.03125 501.984375 C 660.65625 499.761719 658.648438 498.082031 656.007812 496.945312 C 653.363281 495.8125 649.476562 495.246094 644.339844 495.246094 Z M 647.742188 525.609375 L 642.59375 525.609375 L 642.59375 546.523438 C 642.59375 549.421875 642.707031 551.300781 642.929688 552.167969 C 643.152344 553.035156 643.660156 553.945312 644.453125 554.898438 C 645.242188 555.855469 646.519531 556.625 648.28125 557.207031 C 650.042969 557.789062 652.582031 558.078125 655.894531 558.078125 C 661.03125 558.078125 664.65625 556.890625 666.777344 554.519531 C 668.898438 552.144531 669.957031 548.628906 669.957031 543.972656 C 669.957031 539.136719 669.015625 535.195312 667.136719 532.148438 C 665.253906 529.101562 663.128906 527.25 660.753906 526.59375 C 658.378906 525.9375 654.042969 525.609375 647.742188 525.609375 Z M 647.742188 525.609375 " fill-opacity="1" fill-rule="nonzero"/><path fill="#ebebeb" d="M 683.617188 494.617188 L 683.617188 493.855469 L 725.089844 493.855469 L 725.089844 502.949219 L 724.417969 502.949219 C 723.519531 499.574219 722.765625 497.589844 722.15625 496.992188 C 721.542969 496.394531 720.042969 496.09375 717.652344 496.09375 L 695.886719 496.09375 L 695.886719 525.699219 L 716.085938 525.699219 C 718.085938 525.699219 719.355469 525.511719 719.894531 525.140625 C 720.429688 524.765625 720.714844 524.222656 720.746094 523.503906 L 721.417969 523.503906 L 721.417969 529.730469 L 720.746094 529.730469 C 720.59375 528.863281 720.246094 528.28125 719.691406 527.984375 C 719.140625 527.683594 718.117188 527.535156 716.625 527.535156 L 695.886719 527.535156 L 695.886719 547.914062 C 695.886719 550.988281 696.171875 553.203125 696.738281 554.5625 C 697.304688 555.921875 698.210938 556.773438 699.449219 557.117188 C 700.6875 557.460938 702.5625 557.628906 705.070312 557.628906 L 716.714844 557.628906 C 720.414062 557.628906 722.78125 557.503906 723.8125 557.253906 C 724.84375 557 725.714844 556.496094 726.433594 555.738281 C 727.148438 554.984375 727.699219 553.328125 728.089844 550.777344 L 728.714844 550.777344 L 728.714844 559.824219 L 683.617188 559.824219 L 683.617188 559.152344 C 685.140625 559.0625 686.296875 558.773438 687.085938 558.28125 C 687.878906 557.789062 688.273438 556.511719 688.273438 554.453125 L 688.273438 501.195312 C 688.273438 498.78125 688.066406 497.078125 687.648438 496.09375 C 687.230469 495.109375 685.886719 494.617188 683.617188 494.617188 Z M 683.617188 494.617188 " fill-opacity="1" fill-rule="nonzero"/><g clip-path="url(#1e636688cf)"><path fill="#ebebeb" d="M 572.472656 523.808594 C 571.769531 520.90625 571.546875 517.832031 571.886719 514.695312 C 573.460938 500.125 586.570312 489.574219 601.140625 491.148438 C 615.710938 492.726562 626.261719 505.835938 624.683594 520.40625 C 624.414062 522.917969 623.796875 525.3125 622.890625 527.542969 L 616.816406 508.996094 C 616.589844 508.304688 615.65625 508.203125 615.285156 508.828125 L 611.761719 514.769531 C 611.625 515 611.59375 515.273438 611.675781 515.527344 L 616.3125 529.671875 C 616.417969 529.996094 616.695312 530.226562 617.023438 530.261719 L 621.34375 530.730469 C 616.257812 539.609375 606.246094 545.121094 595.429688 543.949219 C 584.613281 542.78125 576.011719 535.253906 572.941406 525.492188 L 581.761719 526.445312 C 582.410156 526.515625 582.914062 525.886719 582.699219 525.273438 L 579.316406 515.453125 C 579.070312 514.742188 578.109375 514.636719 577.714844 515.277344 Z M 591.609375 527.511719 C 592.257812 527.582031 592.757812 526.953125 592.542969 526.335938 L 585.363281 505.59375 C 585.117188 504.882812 584.15625 504.777344 583.765625 505.417969 L 580.113281 511.347656 C 579.972656 511.574219 579.941406 511.851562 580.027344 512.105469 L 584.9375 526.277344 C 585.046875 526.601562 585.339844 526.832031 585.679688 526.871094 Z M 613.277344 529.855469 C 613.898438 529.921875 614.378906 529.292969 614.179688 528.675781 L 607.394531 507.976562 C 607.167969 507.285156 606.234375 507.183594 605.867188 507.808594 L 602.339844 513.75 C 602.207031 513.980469 602.175781 514.257812 602.257812 514.507812 L 606.890625 528.652344 C 607 528.976562 607.277344 529.207031 607.601562 529.242188 Z M 603.800781 528.832031 C 604.421875 528.898438 604.90625 528.269531 604.703125 527.652344 L 601.507812 517.851562 C 601.28125 517.160156 600.347656 517.058594 599.976562 517.683594 L 594.722656 526.570312 C 594.390625 527.128906 594.730469 527.847656 595.351562 527.917969 Z M 603.800781 528.832031 " fill-opacity="1" fill-rule="evenodd"/></g><path fill="#ebebeb" d="M 366.160156 525.175781 C 364.808594 526.328125 363.503906 527.140625 362.253906 527.613281 C 361 528.085938 359.65625 528.324219 358.222656 528.324219 C 355.855469 528.324219 354.03125 527.746094 352.761719 526.589844 C 351.488281 525.429688 350.851562 523.953125 350.851562 522.152344 C 350.851562 521.097656 351.09375 520.132812 351.574219 519.257812 C 352.054688 518.386719 352.683594 517.6875 353.460938 517.15625 C 354.238281 516.628906 355.117188 516.230469 356.089844 515.960938 C 356.808594 515.769531 357.890625 515.585938 359.339844 515.414062 C 362.289062 515.058594 364.460938 514.640625 365.855469 514.152344 C 365.871094 513.652344 365.875 513.335938 365.875 513.199219 C 365.875 511.710938 365.53125 510.660156 364.839844 510.050781 C 363.90625 509.226562 362.519531 508.8125 360.679688 508.8125 C 358.960938 508.8125 357.691406 509.113281 356.871094 509.71875 C 356.054688 510.320312 355.445312 511.386719 355.054688 512.914062 L 351.480469 512.429688 C 351.804688 510.898438 352.339844 509.664062 353.085938 508.722656 C 353.828125 507.78125 354.90625 507.058594 356.3125 506.550781 C 357.722656 506.042969 359.351562 505.789062 361.207031 505.789062 C 363.046875 505.789062 364.542969 506.003906 365.691406 506.4375 C 366.84375 506.871094 367.691406 507.417969 368.230469 508.074219 C 368.773438 508.730469 369.152344 509.558594 369.367188 510.558594 C 369.488281 511.183594 369.550781 512.304688 369.550781 513.929688 L 369.550781 518.804688 C 369.550781 522.199219 369.628906 524.347656 369.785156 525.25 C 369.941406 526.148438 370.246094 527.011719 370.707031 527.835938 L 366.890625 527.835938 C 366.511719 527.078125 366.269531 526.191406 366.160156 525.179688 Z M 365.855469 517.015625 C 364.53125 517.558594 362.539062 518.015625 359.886719 518.394531 C 358.382812 518.613281 357.320312 518.855469 356.699219 519.128906 C 356.078125 519.398438 355.597656 519.792969 355.257812 520.316406 C 354.917969 520.835938 354.75 521.414062 354.75 522.050781 C 354.75 523.023438 355.121094 523.835938 355.855469 524.488281 C 356.59375 525.136719 357.675781 525.460938 359.09375 525.460938 C 360.503906 525.460938 361.753906 525.152344 362.851562 524.539062 C 363.949219 523.921875 364.753906 523.078125 365.265625 522.007812 C 365.660156 521.183594 365.855469 519.964844 365.855469 518.355469 Z M 365.855469 517.015625 " fill-opacity="1" fill-rule="nonzero"/><path fill="#ebebeb" d="M 373.511719 527.835938 L 373.511719 506.277344 L 376.800781 506.277344 L 376.800781 509.542969 C 377.640625 508.015625 378.414062 507.007812 379.125 506.519531 C 379.835938 506.03125 380.617188 505.789062 381.46875 505.789062 C 382.703125 505.789062 383.953125 506.179688 385.226562 506.964844 L 383.96875 510.355469 C 383.074219 509.828125 382.179688 509.566406 381.289062 509.566406 C 380.488281 509.566406 379.773438 509.804688 379.136719 510.285156 C 378.5 510.765625 378.046875 511.433594 377.773438 512.285156 C 377.367188 513.585938 377.167969 515.007812 377.167969 516.550781 L 377.167969 527.835938 Z M 373.511719 527.835938 " fill-opacity="1" fill-rule="nonzero"/><path fill="#ebebeb" d="M 384.375 517.054688 C 384.375 513.0625 385.484375 510.105469 387.707031 508.183594 C 389.558594 506.585938 391.820312 505.789062 394.488281 505.789062 C 397.449219 505.789062 399.875 506.757812 401.753906 508.703125 C 403.636719 510.644531 404.578125 513.328125 404.578125 516.75 C 404.578125 519.527344 404.160156 521.707031 403.328125 523.300781 C 402.496094 524.890625 401.285156 526.125 399.695312 527.003906 C 398.105469 527.882812 396.367188 528.324219 394.488281 528.324219 C 391.46875 528.324219 389.027344 527.355469 387.167969 525.421875 C 385.304688 523.484375 384.375 520.695312 384.375 517.054688 Z M 388.132812 517.054688 C 388.132812 519.816406 388.734375 521.886719 389.9375 523.257812 C 391.144531 524.632812 392.660156 525.320312 394.488281 525.320312 C 396.300781 525.320312 397.808594 524.628906 399.015625 523.25 C 400.21875 521.867188 400.820312 519.761719 400.820312 516.933594 C 400.820312 514.269531 400.214844 512.246094 399.003906 510.875 C 397.792969 509.5 396.285156 508.8125 394.488281 508.8125 C 392.660156 508.8125 391.144531 509.496094 389.9375 510.863281 C 388.734375 512.230469 388.132812 514.296875 388.132812 517.054688 Z M 388.132812 517.054688 " fill-opacity="1" fill-rule="nonzero"/><path fill="#ebebeb" d="M 421.328125 527.835938 L 421.328125 524.671875 C 419.652344 527.105469 417.371094 528.324219 414.488281 528.324219 C 413.214844 528.324219 412.027344 528.082031 410.921875 527.59375 C 409.820312 527.105469 409 526.492188 408.464844 525.757812 C 407.933594 525.019531 407.554688 524.113281 407.339844 523.046875 C 407.191406 522.328125 407.117188 521.191406 407.117188 519.636719 L 407.117188 506.277344 L 410.769531 506.277344 L 410.769531 518.234375 C 410.769531 520.140625 410.84375 521.429688 410.996094 522.089844 C 411.222656 523.054688 411.710938 523.808594 412.457031 524.355469 C 413.199219 524.902344 414.121094 525.175781 415.21875 525.175781 C 416.3125 525.175781 417.34375 524.898438 418.304688 524.335938 C 419.265625 523.773438 419.945312 523.007812 420.34375 522.039062 C 420.742188 521.074219 420.941406 519.667969 420.941406 517.828125 L 420.941406 506.277344 L 424.597656 506.277344 L 424.597656 527.835938 Z M 421.328125 527.835938 " fill-opacity="1" fill-rule="nonzero"/><path fill="#ebebeb" d="M 428.660156 527.835938 L 428.660156 506.277344 L 431.949219 506.277344 L 431.949219 509.339844 C 433.53125 506.972656 435.820312 505.789062 438.8125 505.789062 C 440.109375 505.789062 441.304688 506.023438 442.394531 506.488281 C 443.484375 506.957031 444.300781 507.566406 444.839844 508.328125 C 445.382812 509.085938 445.761719 509.984375 445.976562 511.027344 C 446.113281 511.703125 446.179688 512.886719 446.179688 514.578125 L 446.179688 527.835938 L 442.527344 527.835938 L 442.527344 514.722656 C 442.527344 513.234375 442.386719 512.121094 442.101562 511.382812 C 441.816406 510.644531 441.3125 510.054688 440.585938 509.613281 C 439.863281 509.175781 439.015625 508.957031 438.039062 508.957031 C 436.484375 508.957031 435.140625 509.449219 434.011719 510.4375 C 432.878906 511.425781 432.316406 513.300781 432.316406 516.0625 L 432.316406 527.835938 Z M 428.660156 527.835938 " fill-opacity="1" fill-rule="nonzero"/><path fill="#ebebeb" d="M 464.109375 527.835938 L 464.109375 525.117188 C 462.742188 527.253906 460.734375 528.324219 458.082031 528.324219 C 456.363281 528.324219 454.78125 527.851562 453.339844 526.902344 C 451.898438 525.957031 450.78125 524.632812 449.988281 522.933594 C 449.199219 521.234375 448.800781 519.28125 448.800781 517.078125 C 448.800781 514.925781 449.160156 512.972656 449.878906 511.21875 C 450.59375 509.46875 451.671875 508.125 453.105469 507.191406 C 454.539062 506.253906 456.144531 505.789062 457.917969 505.789062 C 459.21875 505.789062 460.375 506.0625 461.390625 506.609375 C 462.40625 507.160156 463.230469 507.871094 463.867188 508.753906 L 463.867188 498.074219 L 467.5 498.074219 L 467.5 527.835938 Z M 452.558594 517.078125 C 452.558594 519.835938 453.140625 521.902344 454.304688 523.269531 C 455.46875 524.636719 456.84375 525.320312 458.425781 525.320312 C 460.023438 525.320312 461.378906 524.667969 462.496094 523.359375 C 463.613281 522.054688 464.171875 520.0625 464.171875 517.382812 C 464.171875 514.429688 463.601562 512.265625 462.464844 510.882812 C 461.328125 509.503906 459.929688 508.8125 458.261719 508.8125 C 456.640625 508.8125 455.28125 509.476562 454.191406 510.804688 C 453.101562 512.128906 452.558594 514.21875 452.558594 517.078125 Z M 452.558594 517.078125 " fill-opacity="1" fill-rule="nonzero"/><g clip-path="url(#544d3870ab)"><path fill="#ebebeb" d="M 365.632812 540.484375 L 365.632812 545.03125 L 361.734375 545.03125 L 361.734375 553.722656 C 361.734375 555.480469 361.769531 556.503906 361.84375 556.796875 C 361.917969 557.085938 362.089844 557.328125 362.351562 557.515625 C 362.617188 557.707031 362.9375 557.800781 363.316406 557.800781 C 363.84375 557.800781 364.609375 557.617188 365.613281 557.253906 L 366.097656 561.679688 C 364.773438 562.25 363.269531 562.53125 361.589844 562.53125 C 360.5625 562.53125 359.636719 562.359375 358.808594 562.015625 C 357.984375 561.667969 357.378906 561.222656 356.992188 560.675781 C 356.605469 560.125 356.339844 559.386719 356.191406 558.449219 C 356.070312 557.789062 356.007812 556.449219 356.007812 554.429688 L 356.007812 545.03125 L 353.390625 545.03125 L 353.390625 540.484375 L 356.007812 540.484375 L 356.007812 536.199219 L 361.734375 532.867188 L 361.734375 540.484375 Z M 365.632812 540.484375 " fill-opacity="1" fill-rule="nonzero"/></g><g clip-path="url(#7a7dbee43d)"><path fill="#ebebeb" d="M 373.613281 532.28125 L 373.613281 543.222656 C 375.453125 541.070312 377.652344 539.996094 380.210938 539.996094 C 381.523438 539.996094 382.707031 540.238281 383.765625 540.726562 C 384.820312 541.214844 385.613281 541.835938 386.148438 542.59375 C 386.683594 543.351562 387.050781 544.191406 387.246094 545.113281 C 387.441406 546.03125 387.539062 547.460938 387.539062 549.394531 L 387.539062 562.046875 L 381.835938 562.046875 L 381.835938 550.65625 C 381.835938 548.394531 381.726562 546.960938 381.511719 546.351562 C 381.292969 545.742188 380.910156 545.257812 380.363281 544.898438 C 379.816406 544.539062 379.128906 544.359375 378.304688 544.359375 C 377.355469 544.359375 376.507812 544.589844 375.765625 545.050781 C 375.019531 545.511719 374.476562 546.207031 374.128906 547.132812 C 373.785156 548.058594 373.613281 549.429688 373.613281 551.242188 L 373.613281 562.046875 L 367.90625 562.046875 L 367.90625 532.28125 Z M 373.613281 532.28125 " fill-opacity="1" fill-rule="nonzero"/></g><g clip-path="url(#99e5c91b54)"><path fill="#ebebeb" d="M 404.148438 555.183594 L 409.835938 556.136719 C 409.105469 558.222656 407.949219 559.808594 406.375 560.898438 C 404.796875 561.988281 402.824219 562.53125 400.453125 562.53125 C 396.707031 562.53125 393.929688 561.308594 392.128906 558.859375 C 390.710938 556.894531 390 554.417969 390 551.425781 C 390 547.851562 390.933594 545.054688 392.800781 543.03125 C 394.667969 541.007812 397.03125 539.996094 399.886719 539.996094 C 403.09375 539.996094 405.625 541.054688 407.480469 543.171875 C 409.335938 545.292969 410.222656 548.535156 410.140625 552.910156 L 395.847656 552.910156 C 395.886719 554.601562 396.347656 555.917969 397.226562 556.855469 C 398.105469 557.796875 399.203125 558.269531 400.515625 558.269531 C 401.410156 558.269531 402.160156 558.023438 402.769531 557.539062 C 403.378906 557.050781 403.839844 556.265625 404.148438 555.183594 Z M 404.476562 549.417969 C 404.433594 547.765625 404.007812 546.507812 403.195312 545.648438 C 402.382812 544.789062 401.394531 544.359375 400.230469 544.359375 C 398.988281 544.359375 397.957031 544.8125 397.144531 545.722656 C 396.332031 546.628906 395.933594 547.859375 395.949219 549.417969 Z M 404.476562 549.417969 " fill-opacity="1" fill-rule="nonzero"/></g></svg>